<?xml version="1.0" encoding="utf-8"?>
<!-- Generator: Adobe Illustrator 16.0.0, SVG Export Plug-In . SVG Version: 6.00 Build 0)  -->
<!DOCTYPE svg PUBLIC "-//W3C//DTD SVG 1.1//EN" "http://www.w3.org/Graphics/SVG/1.1/DTD/svg11.dtd">
<svg version="1.1" id="Layer_1" xmlns="http://www.w3.org/2000/svg" xmlns:xlink="http://www.w3.org/1999/xlink" x="0px" y="0px"
	 width="85px" height="60px" viewBox="0 0 85 60" enable-background="new 0 0 85 60" xml:space="preserve">
<g>
	<path fill="#FFFFFF" d="M5.138,54.039c-0.034,0-0.114-0.003-0.149-0.005L4.13,54.036c-2.279,0-4.13-1.854-4.13-4.13V5.195
		c0-2.279,1.851-4.133,4.13-4.133h46.974c2.271,0,4.123,1.95,4.123,4.229v44.611c0,2.279-1.852,4.132-4.127,4.132H29.962
		c-1.091-0.019-3.239-0.69-3.727-3.128c-1.067-3.957-4.755-6.789-8.947-6.789c-4.291,0-8.098,3.041-9.051,7.229
		C8.012,53.163,6.514,54.039,5.138,54.039z M4.127,4.208c-0.596,0-1.083,0.389-1.083,0.987v44.709c0,0.597,0.488,1.086,1.086,1.086
		h1.004c0.005-0.047,0.123-0.271,0.133-0.317c1.267-5.562,6.323-9.597,12.022-9.597c5.568,0,10.465,3.757,11.912,9.137
		c0.151,0.734,0.681,0.777,0.785,0.777h21.112c0.596,0,1.082-0.487,1.082-1.084V5.293c0-0.598-0.484-1.085-1.082-1.085H4.127z"/>
</g>
<path fill="#FFFFFF" d="M84.93,35.828c0,0-0.094-2.094-0.289-3.118c-0.164-0.873-1.086-2.644-1.086-2.644l-7.3-13.59
	c-0.95-1.52-3.114-2.707-4.558-2.707H60.785c-1.438,0-2.605,1.168-2.605,2.609v33.526c0,1.439,1.168,2.609,2.605,2.609h0.643
	c0,0,0.949-0.123,1.305-1.313c0.985-3.934,4.514-6.862,8.748-6.862c4.146,0,7.612,2.808,8.683,6.613
	c0.442,1.612,2.231,1.562,2.231,1.562c1.439,0,2.605-1.17,2.605-2.609L84.93,35.828z M78.326,32.316H65.313
	c-1.097,0-1.989-0.897-1.989-1.989V20.143c0-1.098,0.894-1.99,1.989-1.99h4.364c2.483,0,4.117,2.009,4.63,2.978l5.065,9.434
	C79.893,31.527,79.425,32.316,78.326,32.316z"/>
<path fill="#00BED3" d="M4.127,4.208c-0.596,0-1.083,0.389-1.083,0.987v44.709c0,0.597,0.488,1.086,1.086,1.086h1.004
	c0.005-0.047,0.123-0.271,0.133-0.317c1.267-5.562,6.323-9.597,12.022-9.597c5.568,0,10.465,3.757,11.912,9.137
	c0.151,0.734,0.681,0.777,0.785,0.777h21.112c0.596,0,1.082-0.487,1.082-1.084V5.293c0-0.598-0.484-1.085-1.082-1.085H4.127z"/>
</svg>
