<svg class="avatar" id="Robot-Layer_1" data-name="Layer 1" xmlns="http://www.w3.org/2000/svg" version="1.1" viewBox="0 0 512 512">
  <defs>
    <style>
      .cls-1-mouth, .cls-2, .cls-3, .cls-4, .cls-5, .cls-6, .cls-7, .cls-8 {
        fill-rule: evenodd;
        stroke-width: 0px;
      }

      .cls-1-mouth, .cls-5 {
        fill: #d82062;
      }

      .cls-2 {
        fill: #36474f;
      }

      .cls-3, .cls-4, .cls-5, .cls-7, .cls-9, .cls-8 {
        isolation: isolate;
      }

      .cls-3, .cls-4, .cls-9 {
        opacity: 1;
      }

      .cls-3, .cls-7 {
        fill: #b8cad9;
      }

      .cls-4 {
        fill: #efd307;
      }

      .cls-5 {
        opacity: 1;
      }

      .cls-6-mic {
        fill: #f7e786;
      }

      .cls-7 {
        opacity: 1;
      }

      .headset {
        fill: #03115a;
        opacity: 1;
      }
    </style>
  </defs>
  <path class="headset" d="M450.5,263.5c2.6-37.8-4.7-73.5-22-107,3.4-1.1,6.7-2.5,10-4-32.7-59.9-82.7-96-150-108.5-78.4-10-143.2,14.8-194.5,74.5-8.3,11-15.8,22.5-22.5,34.5,3.7,1,7.4,2.2,11,3.5-17.8,33.5-25.2,69.1-22,107-3.4.3-6.7,0-10-1,4.7,62.9,32,113.4,82,151.5,34.8,25.4,73.8,38.9,117,40.5-1.3,4-1.3,8,0,12-79.6-4.9-140.5-40.9-182.5-108-18.1-30.9-28.1-64.2-30-100C9.1,242.4-.2,218.7,9,187.5c9.8-21.7,26.7-33.7,50.5-36C101.1,73.3,166.4,32.7,255.5,29.5c89.1,3.2,154.4,43.8,196,122,25,2.7,42.2,15.7,51.5,39,7,26.7-.5,48.2-22.5,64.5-9.2,5.8-19.2,8.6-30,8.5Z"/>
  <path class="cls-4" d="M415.5,164.5c6.3,14.6,11.5,29.6,15.5,45,2.8,17.6,4.3,35.3,4.5,53-9.3,75.1-49,127-119,155.5-66.3,21-126.3,9.6-180-34-35.9-32.6-56.2-73.1-61-121.5,0-19.5,1.8-38.8,5.5-58,4.3-13.9,9.1-27.6,14.5-41,31.1-54.1,77.8-85.6,140-94.5,80-5.2,140,26.7,180,95.5Z"/>
  <path class="cls-7" d="M82.5,156.5c4.5,2.1,8.8,4.4,13,7-5.4,13.4-10.2,27.1-14.5,41-3.7,19.2-5.5,38.5-5.5,58-5,.7-10,1-15,1-3.2-37.9,4.2-73.5,22-107Z"/>
  <path class="cls-3" d="M428.5,156.5c17.3,33.5,24.6,69.2,22,107-5,0-10-.3-15-1-.2-17.7-1.7-35.4-4.5-53-4-15.4-9.2-30.4-15.5-45,3.8-3.4,8.1-6.1,13-8Z"/>
  <g class="cls-9">
    <path class="cls-6-mic" d="M167.5,173.5c58.7-.2,117.3,0,176,.5,32.8,8.1,50.8,28.9,54,62.5-1.9,32.4-18.2,53.6-49,63.5-60.6,1.6-121.3,2-182,1-36.7-10.2-54.2-34.3-52.5-72.5,6.2-29.7,24.1-48.1,53.5-55Z"/>
  </g>
  <path class="cls-2" d="M174.5,208.5c22.1-2.5,34.4,7.2,37,29-3.1,23.7-16.4,32.9-40,27.5-15.8-8.3-21.3-21.1-16.5-38.5,4.2-8.7,10.7-14.7,19.5-18Z"/>
  <path class="cls-2" d="M320.5,208.5c17.9-2.7,30,4.3,36.5,21,3.2,18.4-4,30.6-21.5,36.5-15.9,2.8-27.4-3-34.5-17.5-4.9-19.1,1.6-32.4,19.5-40Z"/>
  <path class="cls-1-mouth" d="M220.5,337.5c23.3-.2,46.7,0,70,.5,2.4,1,3.8,2.8,4,5.5-6.7,25.4-23.1,36.2-49,32.5-15.8-5.3-25.5-16.2-29-32.5.4-2.8,1.7-4.8,4-6Z"/>
  <path class="cls-5" d="M249.5,466.5c-1.3-4-1.3-8,0-12,4.7-7.9,11.7-12.4,21-13.5,13.5-2.6,25,.9,34.5,10.5,5.5,13.4,1.4,22.6-12.5,27.5-14.9,4.7-28.4,2.2-40.5-7.5-.8-1.7-1.7-3.4-2.5-5Z"/>
</svg>