<svg id="Group_38" data-name="Group 38" xmlns="http://www.w3.org/2000/svg" width="115.888" height="115.639" viewBox="0 0 115.888 115.639">
  <g id="surface1">
    <path id="Path_10" data-name="Path 10" d="M82.494,67.884A51.286,51.286,0,0,1,70.211,87.02C64.043,93.043,55.966,97.829,46.2,101.243a7.343,7.343,0,0,1-2.333.412h-.088a7.454,7.454,0,0,1-1.432-.141,7.733,7.733,0,0,1-.984-.268C31.6,97.837,23.509,93.053,17.334,87.03A51.189,51.189,0,0,1,5.053,67.9C.092,54.435.374,39.6.6,27.684l0-.183c.046-.984.075-2.018.092-3.16A10.774,10.774,0,0,1,10.842,13.787C22.53,13.134,31.571,9.322,39.3,1.793l.067-.062a6.512,6.512,0,0,1,8.841,0l.066.062C56,9.322,65.039,13.134,76.727,13.787A10.774,10.774,0,0,1,86.872,24.341c.016,1.149.046,2.182.092,3.16l0,.078C87.193,39.52,87.473,54.381,82.494,67.884Zm0,0" transform="translate(-0.5 0)" fill="#00dd80"/>
    <path id="Path_11" data-name="Path 11" d="M257.571,67.887a51.286,51.286,0,0,1-12.283,19.135c-6.168,6.023-14.245,10.809-24.006,14.223a7.343,7.343,0,0,1-2.333.412V0a6.522,6.522,0,0,1,4.333,1.73l.066.062c7.727,7.53,16.768,11.342,28.456,11.994A10.774,10.774,0,0,1,261.95,24.344c.016,1.149.046,2.182.092,3.16l0,.078C262.27,39.523,262.551,54.384,257.571,67.887Zm0,0" transform="translate(-175.577 -0.003)" fill="#00aa63"/>
    <path id="Path_12" data-name="Path 12" d="M141.564,153.733a25.366,25.366,0,0,1-25.245,25.335h-.089a25.335,25.335,0,1,1,0-50.67h.089A25.366,25.366,0,0,1,141.564,153.733Zm0,0" transform="translate(-72.947 -102.906)" fill="#fff"/>
    <path id="Path_13" data-name="Path 13" d="M244.195,153.733a25.366,25.366,0,0,1-25.245,25.335V128.4A25.366,25.366,0,0,1,244.195,153.733Zm0,0" transform="translate(-175.577 -102.906)" fill="#e1ebf0"/>
    <path id="Path_14" data-name="Path 14" d="M178.448,217.071l-11.41,11.412-2.466,2.465a2.986,2.986,0,0,1-4.22,0l-5.3-5.3a2.982,2.982,0,0,1,4.218-4.217l3.194,3.194,11.768-11.768a2.982,2.982,0,0,1,4.218,4.218Zm0,0" transform="translate(-123.666 -169.892)" fill="#b4d2d7"/>
    <path id="Path_15" data-name="Path 15" d="M230.359,217.071l-11.41,11.412v-8.437l7.193-7.192a2.982,2.982,0,0,1,4.217,4.218Zm0,0" transform="translate(-175.577 -169.892)" fill="#6fa5aa"/>
  </g>
  <g id="_005-pill-1" data-name="005-pill-1" transform="translate(26.528 68.799)">
    <path id="Path_4" data-name="Path 4" d="M204.652,73.251c.078-.581.141-1.362.158-1.949.009-.326-.007-.762-.023-1.088-.013-.261-.047-.608-.076-.867a14.881,14.881,0,0,0-.3-1.679c-.054-.214-.121-.5-.187-.712-.269-.852-.269-.852-.46-1.34-.074-.19-.177-.441-.265-.625-.171-.358-.4-.833-.6-1.179-.209-.373-.246-.429-.7-1.12-.112-.171-.275-.39-.4-.553s-.306-.392-.442-.556-.329-.375-.47-.535-.355-.367-.508-.524a14.277,14.277,0,0,0-1.358-1.179,15.913,15.913,0,0,0-1.457-.985,14.949,14.949,0,0,0-2.011-1,12.755,12.755,0,0,0-1.5-.517,16.539,16.539,0,0,0-1.891-.407A18.545,18.545,0,0,0,190,56.281a14.713,14.713,0,0,0-3.479.423,16.91,16.91,0,0,0-1.724.536c-.528.211-1.178.522-1.739.807-.134.062-.266.129-.394.2l-15.559,8.924.048-.025c-1.9,1.061-3.095,3.356-3.145,6.645-.1,6.632,4.5,14.788,10.274,18.217,3,1.784,5.731,1.934,7.674.737-.044.027-.087.057-.132.083l15.559-8.924c.418-.248.968-.592,1.358-.88a14.314,14.314,0,0,0,1.4-1.154,21.9,21.9,0,0,0,1.546-1.688,14.249,14.249,0,0,0,1.053-1.539,16.75,16.75,0,0,0,.939-1.868,19.842,19.842,0,0,0,.671-2.006A12.135,12.135,0,0,0,204.652,73.251Z" transform="translate(-144.774 -56.28)" fill="#005ecf"/>
    <path id="Path_5" data-name="Path 5" d="M174.281,168.782c-5.775-3.429-10.375-11.585-10.274-18.218s4.864-9.229,10.639-5.8,10.375,11.585,10.274,18.217S180.056,172.211,174.281,168.782Z" transform="translate(-144.774 -133.054)" fill="#016ef1"/>
    <path id="Path_6" data-name="Path 6" d="M227.98,73.251c.078-.581.141-1.362.158-1.949.009-.326-.007-.762-.023-1.088-.013-.261-.047-.608-.076-.867a14.9,14.9,0,0,0-.3-1.679c-.054-.214-.121-.5-.187-.712-.269-.852-.269-.852-.46-1.34-.074-.19-.178-.441-.265-.625-.171-.358-.4-.833-.6-1.179-.209-.373-.246-.429-.7-1.12-.112-.171-.275-.39-.4-.553s-.306-.392-.442-.556-.329-.375-.47-.535-.355-.367-.508-.524a14.28,14.28,0,0,0-1.358-1.179,15.92,15.92,0,0,0-1.457-.985,14.953,14.953,0,0,0-2.011-1,12.757,12.757,0,0,0-1.5-.517,16.54,16.54,0,0,0-1.891-.407,18.546,18.546,0,0,0-2.168-.157,14.713,14.713,0,0,0-3.479.423,16.905,16.905,0,0,0-1.724.536c-.528.211-1.178.522-1.739.807-.134.062-.266.129-.394.2l-15.559,8.924c1.933-1.109,4.607-.922,7.542.82,5.775,3.429,10.375,11.585,10.274,18.217-.05,3.261-1.227,5.547-3.1,6.62l15.559-8.924c.418-.248.968-.592,1.358-.88a14.317,14.317,0,0,0,1.4-1.154,21.909,21.909,0,0,0,1.546-1.688,14.249,14.249,0,0,0,1.053-1.539A16.751,16.751,0,0,0,227,76.777a19.827,19.827,0,0,0,.671-2.006A12.123,12.123,0,0,0,227.98,73.251Z" transform="translate(-168.102 -56.28)" fill="#2487ff"/>
    <path id="Path_7" data-name="Path 7" d="M338.775,116.562c.078-.581.141-1.362.158-1.949.009-.326-.007-.762-.023-1.088-.013-.261-.047-.608-.076-.867a14.886,14.886,0,0,0-.3-1.679c-.054-.214-.121-.5-.188-.712-.269-.852-.269-.852-.46-1.34-.074-.19-.178-.441-.265-.625-.171-.358-.4-.833-.6-1.179-.209-.373-.246-.429-.7-1.12-.112-.171-.275-.39-.4-.553l-.081-.1.058.145c.191.488.191.488.46,1.34.066.211.133.5.188.712a14.9,14.9,0,0,1,.3,1.679c.028.26.062.606.076.867.016.326.032.762.023,1.088-.016.586-.08,1.367-.158,1.949a12.123,12.123,0,0,1-.306,1.52,19.825,19.825,0,0,1-.671,2.006,16.772,16.772,0,0,1-.939,1.868,14.272,14.272,0,0,1-1.053,1.539,21.966,21.966,0,0,1-1.546,1.688,14.324,14.324,0,0,1-1.4,1.154c-.391.288-.941.632-1.358.88l-10.487,6.015c-.11,3.114-1.27,5.3-3.087,6.346l15.559-8.924c.418-.248.968-.592,1.358-.88a14.307,14.307,0,0,0,1.4-1.154,21.93,21.93,0,0,0,1.546-1.688,14.255,14.255,0,0,0,1.053-1.539,16.745,16.745,0,0,0,.939-1.868,19.844,19.844,0,0,0,.671-2.006A12.078,12.078,0,0,0,338.775,116.562Z" transform="translate(-278.897 -99.592)" fill="#005ecf"/>
    <path id="Path_8" data-name="Path 8" d="M39.466,167.63c.1-6.414-4.351-14.3-9.937-17.62-2.839-1.686-5.424-1.866-7.294-.794L7.188,157.848c-.445.267-1.031.639-1.447.949A13.894,13.894,0,0,0,4.4,159.931a20.136,20.136,0,0,0-1.474,1.647,14.415,14.415,0,0,0-1,1.506,15.66,15.66,0,0,0-.893,1.833,19.1,19.1,0,0,0-.622,1.941,10.287,10.287,0,0,0-.252,1.3A14.333,14.333,0,0,0,0,170.219a15.618,15.618,0,0,0,.1,1.711,14.291,14.291,0,0,0,.286,1.624c.054.207.117.485.181.689.26.825.26.825.445,1.3.072.184.172.427.257.6.351.733.372.777.578,1.141.189.333.466.762.676,1.083.109.165.266.378.386.535s.3.379.428.537.318.362.455.518.343.355.491.507a13.845,13.845,0,0,0,1.313,1.14c.4.311.978.679,1.409.953.321.186.756.42,1.088.585.252.125.6.269.857.38a12.27,12.27,0,0,0,1.455.5,16.026,16.026,0,0,0,1.829.393,17.925,17.925,0,0,0,2.1.152,14.23,14.23,0,0,0,3.366-.409,16.36,16.36,0,0,0,1.667-.518c.636-.255,1.456-.659,2.063-.976l15.048-8.631C38.28,173,39.418,170.785,39.466,167.63Z" transform="translate(-0.001 -137.728)" fill="#d8d8da"/>
    <path id="Path_9" data-name="Path 9" d="M47.084,221.468a21.436,21.436,0,0,0-4.069-11.931,19.449,19.449,0,0,1,2.006,8.357c-.048,3.155-1.186,5.365-3,6.4l-15.048,8.631c-.607.317-1.427.721-2.063.976a16.364,16.364,0,0,1-1.667.518,14.229,14.229,0,0,1-3.366.409,17.933,17.933,0,0,1-2.1-.152,16.04,16.04,0,0,1-1.829-.393,12.31,12.31,0,0,1-1.455-.5c-.258-.111-.6-.255-.857-.38-.332-.165-.767-.4-1.088-.585-.431-.273-1-.642-1.409-.953a13.818,13.818,0,0,1-1.313-1.14c-.148-.151-.351-.348-.491-.507s-.322-.359-.455-.518c-.079-.094-.17-.208-.259-.32.072.183.17.422.254.6.351.733.372.777.578,1.141.189.333.466.762.676,1.083.109.165.266.378.386.535s.3.379.428.537.318.362.455.518.343.355.491.507a13.843,13.843,0,0,0,1.313,1.14c.4.311.978.679,1.409.953.321.186.756.42,1.088.585.252.125.6.269.857.38a12.273,12.273,0,0,0,1.455.5,16.045,16.045,0,0,0,1.829.393,17.918,17.918,0,0,0,2.1.152A14.229,14.229,0,0,0,25.31,238a16.379,16.379,0,0,0,1.667-.518c.636-.255,1.456-.659,2.063-.976l15.048-8.631C45.9,226.833,47.036,224.623,47.084,221.468Z" transform="translate(-7.618 -191.566)" fill="#c6c5cb"/>
    <circle id="Ellipse_1" data-name="Ellipse 1" cx="7.433" cy="7.433" r="7.433" transform="translate(2.336 23.722)" fill="#e0e0e2"/>
  </g>
  <g id="_005-pill-1-2" data-name="005-pill-1" transform="translate(55.849 68.799)">
    <path id="Path_4-2" data-name="Path 4" d="M204.652,73.251c.078-.581.141-1.362.158-1.949.009-.326-.007-.762-.023-1.088-.013-.261-.047-.608-.076-.867a14.881,14.881,0,0,0-.3-1.679c-.054-.214-.121-.5-.187-.712-.269-.852-.269-.852-.46-1.34-.074-.19-.177-.441-.265-.625-.171-.358-.4-.833-.6-1.179-.209-.373-.246-.429-.7-1.12-.112-.171-.275-.39-.4-.553s-.306-.392-.442-.556-.329-.375-.47-.535-.355-.367-.508-.524a14.277,14.277,0,0,0-1.358-1.179,15.913,15.913,0,0,0-1.457-.985,14.949,14.949,0,0,0-2.011-1,12.755,12.755,0,0,0-1.5-.517,16.539,16.539,0,0,0-1.891-.407A18.545,18.545,0,0,0,190,56.281a14.713,14.713,0,0,0-3.479.423,16.91,16.91,0,0,0-1.724.536c-.528.211-1.178.522-1.739.807-.134.062-.266.129-.394.2l-15.559,8.924.048-.025c-1.9,1.061-3.095,3.356-3.145,6.645-.1,6.632,4.5,14.788,10.274,18.217,3,1.784,5.731,1.934,7.674.737-.044.027-.087.057-.132.083l15.559-8.924c.418-.248.968-.592,1.358-.88a14.314,14.314,0,0,0,1.4-1.154,21.9,21.9,0,0,0,1.546-1.688,14.249,14.249,0,0,0,1.053-1.539,16.75,16.75,0,0,0,.939-1.868,19.842,19.842,0,0,0,.671-2.006A12.135,12.135,0,0,0,204.652,73.251Z" transform="translate(-144.774 -56.28)" fill="#005ecf"/>
    <path id="Path_5-2" data-name="Path 5" d="M174.281,168.782c-5.775-3.429-10.375-11.585-10.274-18.218s4.864-9.229,10.639-5.8,10.375,11.585,10.274,18.217S180.056,172.211,174.281,168.782Z" transform="translate(-144.774 -133.054)" fill="#016ef1"/>
    <path id="Path_6-2" data-name="Path 6" d="M227.98,73.251c.078-.581.141-1.362.158-1.949.009-.326-.007-.762-.023-1.088-.013-.261-.047-.608-.076-.867a14.9,14.9,0,0,0-.3-1.679c-.054-.214-.121-.5-.187-.712-.269-.852-.269-.852-.46-1.34-.074-.19-.178-.441-.265-.625-.171-.358-.4-.833-.6-1.179-.209-.373-.246-.429-.7-1.12-.112-.171-.275-.39-.4-.553s-.306-.392-.442-.556-.329-.375-.47-.535-.355-.367-.508-.524a14.28,14.28,0,0,0-1.358-1.179,15.92,15.92,0,0,0-1.457-.985,14.953,14.953,0,0,0-2.011-1,12.757,12.757,0,0,0-1.5-.517,16.54,16.54,0,0,0-1.891-.407,18.546,18.546,0,0,0-2.168-.157,14.713,14.713,0,0,0-3.479.423,16.905,16.905,0,0,0-1.724.536c-.528.211-1.178.522-1.739.807-.134.062-.266.129-.394.2l-15.559,8.924c1.933-1.109,4.607-.922,7.542.82,5.775,3.429,10.375,11.585,10.274,18.217-.05,3.261-1.227,5.547-3.1,6.62l15.559-8.924c.418-.248.968-.592,1.358-.88a14.317,14.317,0,0,0,1.4-1.154,21.909,21.909,0,0,0,1.546-1.688,14.249,14.249,0,0,0,1.053-1.539A16.751,16.751,0,0,0,227,76.777a19.827,19.827,0,0,0,.671-2.006A12.123,12.123,0,0,0,227.98,73.251Z" transform="translate(-168.102 -56.28)" fill="#2487ff"/>
    <path id="Path_7-2" data-name="Path 7" d="M338.775,116.562c.078-.581.141-1.362.158-1.949.009-.326-.007-.762-.023-1.088-.013-.261-.047-.608-.076-.867a14.886,14.886,0,0,0-.3-1.679c-.054-.214-.121-.5-.188-.712-.269-.852-.269-.852-.46-1.34-.074-.19-.178-.441-.265-.625-.171-.358-.4-.833-.6-1.179-.209-.373-.246-.429-.7-1.12-.112-.171-.275-.39-.4-.553l-.081-.1.058.145c.191.488.191.488.46,1.34.066.211.133.5.188.712a14.9,14.9,0,0,1,.3,1.679c.028.26.062.606.076.867.016.326.032.762.023,1.088-.016.586-.08,1.367-.158,1.949a12.123,12.123,0,0,1-.306,1.52,19.825,19.825,0,0,1-.671,2.006,16.772,16.772,0,0,1-.939,1.868,14.272,14.272,0,0,1-1.053,1.539,21.966,21.966,0,0,1-1.546,1.688,14.324,14.324,0,0,1-1.4,1.154c-.391.288-.941.632-1.358.88l-10.487,6.015c-.11,3.114-1.27,5.3-3.087,6.346l15.559-8.924c.418-.248.968-.592,1.358-.88a14.307,14.307,0,0,0,1.4-1.154,21.93,21.93,0,0,0,1.546-1.688,14.255,14.255,0,0,0,1.053-1.539,16.745,16.745,0,0,0,.939-1.868,19.844,19.844,0,0,0,.671-2.006A12.078,12.078,0,0,0,338.775,116.562Z" transform="translate(-278.897 -99.592)" fill="#005ecf"/>
    <path id="Path_8-2" data-name="Path 8" d="M39.466,167.63c.1-6.414-4.351-14.3-9.937-17.62-2.839-1.686-5.424-1.866-7.294-.794L7.188,157.848c-.445.267-1.031.639-1.447.949A13.894,13.894,0,0,0,4.4,159.931a20.136,20.136,0,0,0-1.474,1.647,14.415,14.415,0,0,0-1,1.506,15.66,15.66,0,0,0-.893,1.833,19.1,19.1,0,0,0-.622,1.941,10.287,10.287,0,0,0-.252,1.3A14.333,14.333,0,0,0,0,170.219a15.618,15.618,0,0,0,.1,1.711,14.291,14.291,0,0,0,.286,1.624c.054.207.117.485.181.689.26.825.26.825.445,1.3.072.184.172.427.257.6.351.733.372.777.578,1.141.189.333.466.762.676,1.083.109.165.266.378.386.535s.3.379.428.537.318.362.455.518.343.355.491.507a13.845,13.845,0,0,0,1.313,1.14c.4.311.978.679,1.409.953.321.186.756.42,1.088.585.252.125.6.269.857.38a12.27,12.27,0,0,0,1.455.5,16.026,16.026,0,0,0,1.829.393,17.925,17.925,0,0,0,2.1.152,14.23,14.23,0,0,0,3.366-.409,16.36,16.36,0,0,0,1.667-.518c.636-.255,1.456-.659,2.063-.976l15.048-8.631C38.28,173,39.418,170.785,39.466,167.63Z" transform="translate(-0.001 -137.728)" fill="#d8d8da"/>
    <path id="Path_9-2" data-name="Path 9" d="M47.084,221.468a21.436,21.436,0,0,0-4.069-11.931,19.449,19.449,0,0,1,2.006,8.357c-.048,3.155-1.186,5.365-3,6.4l-15.048,8.631c-.607.317-1.427.721-2.063.976a16.364,16.364,0,0,1-1.667.518,14.229,14.229,0,0,1-3.366.409,17.933,17.933,0,0,1-2.1-.152,16.04,16.04,0,0,1-1.829-.393,12.31,12.31,0,0,1-1.455-.5c-.258-.111-.6-.255-.857-.38-.332-.165-.767-.4-1.088-.585-.431-.273-1-.642-1.409-.953a13.818,13.818,0,0,1-1.313-1.14c-.148-.151-.351-.348-.491-.507s-.322-.359-.455-.518c-.079-.094-.17-.208-.259-.32.072.183.17.422.254.6.351.733.372.777.578,1.141.189.333.466.762.676,1.083.109.165.266.378.386.535s.3.379.428.537.318.362.455.518.343.355.491.507a13.843,13.843,0,0,0,1.313,1.14c.4.311.978.679,1.409.953.321.186.756.42,1.088.585.252.125.6.269.857.38a12.273,12.273,0,0,0,1.455.5,16.045,16.045,0,0,0,1.829.393,17.918,17.918,0,0,0,2.1.152A14.229,14.229,0,0,0,25.31,238a16.379,16.379,0,0,0,1.667-.518c.636-.255,1.456-.659,2.063-.976l15.048-8.631C45.9,226.833,47.036,224.623,47.084,221.468Z" transform="translate(-7.618 -191.566)" fill="#c6c5cb"/>
    <circle id="Ellipse_1-2" data-name="Ellipse 1" cx="7.433" cy="7.433" r="7.433" transform="translate(2.336 23.722)" fill="#e0e0e2"/>
  </g>
</svg>
