<?xml version="1.0" encoding="UTF-8"?>
<svg width="14px" height="14px" viewBox="0 0 14 14" version="1.1" xmlns="http://www.w3.org/2000/svg" xmlns:xlink="http://www.w3.org/1999/xlink">
    <!-- Generator: Sketch 57.1 (83088) - https://sketch.com -->
    <title></title>
    <desc>Created with Sketch.</desc>
    <g id="Page-1" stroke="none" stroke-width="1" fill="none" fill-rule="evenodd">
        <g id="B2B-Sales-Copy-4" transform="translate(-153.000000, -3312.000000)" fill="#2E3192" fill-rule="nonzero">
            <path d="M166.234375,3321.73438 C166.453126,3321.73438 166.635416,3321.80729 166.78125,3321.95312 C166.927084,3322.09896 167,3322.28125 167,3322.5 L167,3325.23438 C167,3325.45313 166.927084,3325.63542 166.78125,3325.78125 C166.635416,3325.92708 166.453126,3326 166.234375,3326 C162.564218,3326 159.440985,3324.71182 156.864583,3322.13542 C154.288182,3319.55901 153,3316.43578 153,3312.76562 C153,3312.54687 153.072916,3312.36458 153.21875,3312.21875 C153.364584,3312.07292 153.546874,3312 153.765625,3312 L156.5,3312 C156.718751,3312 156.901041,3312.07292 157.046875,3312.21875 C157.192709,3312.36458 157.265625,3312.54687 157.265625,3312.76562 C157.265625,3313.76216 157.42361,3314.69791 157.739583,3315.57292 C157.836806,3315.86458 157.776043,3316.11979 157.557292,3316.33854 L155.84375,3318.05208 C157.010423,3320.31251 158.723947,3322.02604 160.984375,3323.19271 L162.697917,3321.47917 C162.868056,3321.26042 163.123262,3321.19965 163.463542,3321.29688 C164.411463,3321.58854 165.335065,3321.73438 166.234375,3321.73438 Z" id=""></path>
        </g>
    </g>
</svg>