<svg xmlns="http://www.w3.org/2000/svg" width="42" height="42" viewBox="0 0 42 42">
  <path id="chat_icon" d="M6.461,42V37.154H4.847a5.255,5.255,0,0,1-3.433-1.161A3.7,3.7,0,0,1,0,33.015V19.991A4.328,4.328,0,0,1,1.363,16.76a4.583,4.583,0,0,1,3.281-1.313h.2v10.2a5.487,5.487,0,0,0,1.918,4.24A6.618,6.618,0,0,0,11.308,31.6H23.12a3.2,3.2,0,0,1,1.716.5l2.625,1.817A3.467,3.467,0,0,1,25.645,36.3a6.879,6.879,0,0,1-3.433.858H13.125a2.9,2.9,0,0,0-1.312.3L6.463,42Zm27.462-6.462h0l-7.57-6.057a2.552,2.552,0,0,0-1.716-.4h-10.2A6.333,6.333,0,0,1,9.945,27.31a5.711,5.711,0,0,1-1.868-4.291V6.058A6.347,6.347,0,0,1,9.591,1.716,5.26,5.26,0,0,1,13.73,0H35.639a6.33,6.33,0,0,1,4.493,1.767A5.711,5.711,0,0,1,42,6.058V23.019a5.711,5.711,0,0,1-1.868,4.291,6.333,6.333,0,0,1-4.493,1.767H33.923v6.461Z" transform="translate(0 0)" fill="#fff"/>
</svg>
