<svg xmlns="http://www.w3.org/2000/svg" width="30" height="29" viewBox="0 0 30 29">
  <path id="close_icn" d="M17.609,14.5,29.441,25.983A1.586,1.586,0,0,1,30,27.221a1.687,1.687,0,0,1-.536,1.261,1.807,1.807,0,0,1-1.3.518,1.692,1.692,0,0,1-1.281-.54L15,16.977,3.121,28.46A1.692,1.692,0,0,1,1.84,29a1.807,1.807,0,0,1-1.3-.518A1.687,1.687,0,0,1,0,27.221a1.586,1.586,0,0,1,.559-1.238L12.391,14.5.559,3.017A1.586,1.586,0,0,1,0,1.779,1.687,1.687,0,0,1,.536.518,1.807,1.807,0,0,1,1.84,0,1.692,1.692,0,0,1,3.121.54L15,11.978,26.879.54A1.692,1.692,0,0,1,28.16,0a1.807,1.807,0,0,1,1.3.518A1.687,1.687,0,0,1,30,1.779a1.586,1.586,0,0,1-.559,1.238Z" fill="#fff"/>
</svg>
