<svg xmlns="http://www.w3.org/2000/svg" width="78" height="78" viewBox="0 0 78 78">
  <g id="_001-cheap" data-name="001-cheap" transform="translate(0.307)">
    <path id="Shape" d="M13.24,47.4a23.325,23.325,0,0,1-4.8-2.495A24.587,24.587,0,0,1,0,35.106,27.312,27.312,0,0,0,7.8,32.87a26.711,26.711,0,0,0,4.688-2.713A28.634,28.634,0,0,0,24.527,6.735,28.433,28.433,0,0,0,23.732,0,24.422,24.422,0,0,1,46,24.381,24.4,24.4,0,0,1,21.834,49h-.049A23.677,23.677,0,0,1,13.24,47.4Z" transform="translate(31.693 22)" fill="#ffc477"/>
    <path id="Shape-2" data-name="Shape" d="M9.591,23.153A17.15,17.15,0,0,1,1.868,0,28.17,28.17,0,0,0,16.08,3.806a26.886,26.886,0,0,0,3.741-.252,24.079,24.079,0,0,0,8.406,9.534A23.4,23.4,0,0,0,33,15.514,17.53,17.53,0,0,1,9.591,23.153Z" transform="translate(11.693 53)" fill="#ffdaaa"/>
    <path id="Shape-3" data-name="Shape" d="M24.5,49A24.514,24.514,0,1,1,38.12,44.851a23.8,23.8,0,0,1-5.894,2.9A24.109,24.109,0,0,1,24.548,49Z" transform="translate(5.693 6)" fill="#ffb655"/>
    <path id="Shape-4" data-name="Shape" d="M28.023,56a28,28,0,1,1,27.19-34.561A27.505,27.505,0,0,1,56,28.021,27.886,27.886,0,0,1,44.09,50.91a26.556,26.556,0,0,1-4.637,2.651,27.3,27.3,0,0,1-7.713,2.185A26.275,26.275,0,0,1,28.106,56Z" transform="translate(-0.307)" fill="#ffa733"/>
    <path id="Path" d="M13.775,13.268A13.543,13.543,0,0,1,0,0H2.755a10.835,10.835,0,0,0,11.02,10.614,11.243,11.243,0,0,0,4.9-1.106L19.9,11.882A14.047,14.047,0,0,1,13.775,13.268Z" transform="translate(15.511 60.81)" fill="#f1f2f2"/>
    <path id="Path-2" data-name="Path" d="M0,0H3.317V5.528H0Z" transform="translate(53.103 60.81)" fill="#f1f2f2"/>
    <path id="Path-3" data-name="Path" d="M0,5.149,2.962,0,5.528,1.486,2.566,6.634Z" transform="translate(42.047 57.493)" fill="#f1f2f2"/>
    <path id="Path-4" data-name="Path" d="M0,1.486,2.565,0,5.528,5.148,2.962,6.634Z" transform="translate(59.737 57.493)" fill="#f1f2f2"/>
    <path id="Path-5" data-name="Path" d="M0,2.566,1.486,0,6.634,2.962,5.148,5.528Z" transform="translate(66.37 51.965)" fill="#f1f2f2"/>
    <path id="Path-6" data-name="Path" d="M0,0H5.528V3.317H0Z" transform="translate(68.582 45.331)" fill="#f1f2f2"/>
    <path id="Path-7" data-name="Path" d="M0,2.962,5.148,0,6.634,2.566,1.486,5.528Z" transform="translate(66.37 34.275)" fill="#f1f2f2"/>
    <path id="Path-8" data-name="Path" d="M0,5.148,2.962,0,5.528,1.485,2.566,6.634Z" transform="translate(59.737 27.641)" fill="#f1f2f2"/>
    <path id="Path-9" data-name="Path" d="M6.546,30.958a1.313,1.313,0,0,1-1.193-1.407V4.8L2.022,8.734A1.07,1.07,0,0,1,.335,8.7a1.6,1.6,0,0,1,0-1.955L5.7.412a1.069,1.069,0,0,1,1.687,0,1.544,1.544,0,0,1,.35.995V29.551A1.313,1.313,0,0,1,6.546,30.958Z" transform="translate(22.145 13.268)" fill="#fff"/>
    <path id="Path-10" data-name="Path" d="M11.941,3.317H1.327A1.521,1.521,0,0,1,0,1.658,1.521,1.521,0,0,1,1.327,0H11.941a1.52,1.52,0,0,1,1.327,1.658A1.52,1.52,0,0,1,11.941,3.317Z" transform="translate(22.145 40.803)" fill="#fff"/>
  </g>
</svg>
