<svg id="desktop_img" xmlns="http://www.w3.org/2000/svg" width="224" height="78" viewBox="0 0 224 78">
  <rect id="Rectangle" width="224" height="78" rx="12"/>
  <g id="internet" transform="translate(14 13)">
    <path id="Path" d="M50,25.5A25.254,25.254,0,0,1,25,51,25.254,25.254,0,0,1,0,25.5,25.253,25.253,0,0,1,25,0,25.253,25.253,0,0,1,50,25.5Z" transform="translate(3 1)"/>
    <path id="Path-2" data-name="Path" d="M33,24.4C33,37.984,21.581,49,7.5,49A26.354,26.354,0,0,1,0,47.92a26.652,26.652,0,0,0,3.344.21c14.086,0,25.5-11.016,25.5-24.6A24.741,24.741,0,0,0,10.839,0C23.345,1.58,33,11.9,33,24.4Z" transform="translate(20 2)" fill="#535353"/>
    <path id="Path-3" data-name="Path" d="M54.751,11H1.249A1.307,1.307,0,0,1,0,9.641V1.359A1.307,1.307,0,0,1,1.249,0h53.5A1.307,1.307,0,0,1,56,1.359V9.641A1.307,1.307,0,0,1,54.751,11Z" transform="translate(0 22)" fill="#f6f6f6"/>
    <path id="Path-4" data-name="Path" d="M9.76,11H0V0H9.76A1.292,1.292,0,0,1,11,1.339V9.661A1.292,1.292,0,0,1,9.76,11Z" transform="translate(45 22)" fill="#c9f0ff"/>
    <path id="Path-5" data-name="Path" d="M2.851.228l.469.991a.394.394,0,0,0,.3.224L4.664,1.6a.413.413,0,0,1,.217.7l-.759.772a.419.419,0,0,0-.112.362l.179,1.089a.4.4,0,0,1-.568.431l-.938-.514a.378.378,0,0,0-.365,0l-.938.514a.4.4,0,0,1-.568-.431L.99,3.432A.42.42,0,0,0,.878,3.07L.119,2.3a.413.413,0,0,1,.217-.7l1.049-.159a.394.394,0,0,0,.3-.224L2.149.228a.385.385,0,0,1,.7,0Z" transform="translate(48 25)" fill="#ffd86e"/>
    <path id="Path-6" data-name="Path" d="M1.649,11H0V0H1.649A1.355,1.355,0,0,1,3,1.359V9.642A1.355,1.355,0,0,1,1.649,11Z" transform="translate(53 22)" fill="#9ae7fd"/>
    <path id="Shape" d="M28.5,52a25.719,25.719,0,0,1-12.526-3.257A.845.845,0,0,1,15.65,47.6a.831.831,0,0,1,1.136-.327,23.934,23.934,0,0,0,4.9,2.061A32.623,32.623,0,0,1,16.014,43.5a28.078,28.078,0,0,1-2.1-3.2,32.079,32.079,0,0,0-3.9,1.355,24.336,24.336,0,0,0,2.756,2.8.848.848,0,0,1,.089,1.187.832.832,0,0,1-1.179.09A25.965,25.965,0,0,1,3.685,33.2H2.07A2.079,2.079,0,0,1,0,31.114V23.54a2.08,2.08,0,0,1,2.07-2.084h1A25.85,25.85,0,0,1,10.238,7.615a25.7,25.7,0,0,1,36.523,0,25.861,25.861,0,0,1,7.151,13.729H54.93A2.08,2.08,0,0,1,57,23.428v7.725a2.079,2.079,0,0,1-2.07,2.083H53.314a26.029,26.029,0,0,1-6.553,11.148A25.568,25.568,0,0,1,28.5,52Zm.223-13.394c-.313,0-.631,0-.945.007-1.463.021-2.785.068-4.041.145.309,1.394.671,2.728,1.077,3.964a27.193,27.193,0,0,0,3.625,7.6h.121a27.191,27.191,0,0,0,3.626-7.6c.4-1.228.765-2.558,1.075-3.953C31.781,38.661,30.253,38.606,28.723,38.606Zm6.217.309a43.187,43.187,0,0,1-1.166,4.334,33.127,33.127,0,0,1-3.12,6.971c.148-.013.283-.026.424-.041a28.982,28.982,0,0,0,8.581-7.706,26.224,26.224,0,0,0,1.688-2.513A52.541,52.541,0,0,0,34.94,38.915Zm-12.887-.032h0a47.372,47.372,0,0,0-6.454.985,26.394,26.394,0,0,0,1.742,2.606,28.973,28.973,0,0,0,8.573,7.7c.106.012.267.03.43.044a33.151,33.151,0,0,1-3.118-6.969,43.518,43.518,0,0,1-1.174-4.367Zm20.986,1.5A28,28,0,0,1,40.986,43.5a32.556,32.556,0,0,1-5.69,5.848,24.131,24.131,0,0,0,10.283-6.15c.469-.472.94-.989,1.4-1.539A32.135,32.135,0,0,0,43.846,40.6C43.577,40.526,43.305,40.451,43.039,40.38Zm2.855-7.144a28.7,28.7,0,0,1-2.049,5.621l.122.033c.113.031.227.062.34.094a31.728,31.728,0,0,1,3.747,1.3,24.08,24.08,0,0,0,3.514-7.044ZM5.429,33.2a24.3,24.3,0,0,0,3.52,7.08,33.192,33.192,0,0,1,4.166-1.5A28.682,28.682,0,0,1,11.1,33.2Zm30.431,0c-.151,1.376-.349,2.742-.589,4.058a54.141,54.141,0,0,1,6.916,1.174A26.931,26.931,0,0,0,44.179,33.2H35.86Zm-23.037,0h0a26.983,26.983,0,0,0,1.943,5.137,47.964,47.964,0,0,1,6.958-1.112c-.24-1.318-.436-2.673-.584-4.025H12.822Zm15.9,3.725c1.64,0,3.281.062,4.879.183.233-1.249.428-2.564.581-3.909H22.82c.149,1.324.343,2.635.577,3.9,1.339-.087,2.764-.14,4.356-.163C28.075,36.925,28.4,36.923,28.72,36.923ZM46.051,23.139v8.375H54.93a.4.4,0,0,0,.4-.4V23.54a.4.4,0,0,0-.4-.4Zm-43.981,0a.4.4,0,0,0-.4.4v7.573a.4.4,0,0,0,.4.4H44.38V23.139H31.415a.842.842,0,0,1,0-1.683H34.41c-.026-.377-.055-.743-.087-1.117-.165-1.868-.41-3.7-.73-5.445-1.6.122-3.231.183-4.853.183-.309,0-.631,0-.986-.007-1.591-.023-3.013-.076-4.348-.162-.318,1.739-.563,3.567-.727,5.432-.029.321-.056.666-.087,1.117H26.2a.842.842,0,0,1,0,1.683Zm40.122-9.57a54.038,54.038,0,0,1-6.93,1.174c.319,1.765.563,3.6.725,5.449.033.38.065.793.1,1.264h8.636c-.068-.412-.131-.755-.2-1.078a28.112,28.112,0,0,0-2.331-6.809Zm-27.429.095a28.163,28.163,0,0,0-2.286,6.714c-.072.348-.138.711-.2,1.078h8.637v-.01c.024-.338.057-.8.1-1.255.163-1.848.4-3.669.719-5.414A47.892,47.892,0,0,1,14.763,13.664ZM8.943,11.72a24.009,24.009,0,0,0-4.176,9.736h5.818c.079-.508.163-.973.255-1.42a29.9,29.9,0,0,1,2.276-6.809A33.044,33.044,0,0,1,8.943,11.72Zm39.112,0a31.618,31.618,0,0,1-3.749,1.3l-.28.078-.181.05a29.89,29.89,0,0,1,2.316,6.893c.08.39.156.805.237,1.308h5.814A24.017,24.017,0,0,0,48.056,11.718ZM28.439,1.683c-2.018,2.682-3.645,6.679-4.7,11.559,1.231.076,2.553.124,4.041.145.321,0,.647.007.967.007,1.516,0,3.036-.055,4.517-.162-1.058-4.875-2.683-8.869-4.7-11.549h-.121Zm-2.106.1-.017,0c-.133.012-.264.024-.394.038a27.239,27.239,0,0,0-8.874,8c-.52.733-1.015,1.51-1.472,2.311a47.219,47.219,0,0,0,6.481.991A34.831,34.831,0,0,1,26.333,1.78Zm4.333,0a34.8,34.8,0,0,1,4.269,11.306,52.757,52.757,0,0,0,6.434-1.052c-.437-.759-.914-1.506-1.417-2.219a27.243,27.243,0,0,0-8.874-7.995C30.937,1.8,30.793,1.792,30.667,1.78Zm-9.081.909A24.141,24.141,0,0,0,11.421,8.8c-.489.492-.963,1.012-1.409,1.544A32.012,32.012,0,0,0,13.9,11.7a29.74,29.74,0,0,1,1.792-2.864A28.881,28.881,0,0,1,21.586,2.689Zm13.829,0h0a28.851,28.851,0,0,1,5.9,6.148,29.634,29.634,0,0,1,1.745,2.776c.283-.076.549-.149.789-.218a32.046,32.046,0,0,0,3.136-1.053c-.446-.532-.918-1.051-1.4-1.539A24.143,24.143,0,0,0,35.415,2.689Z" fill="#cbcbc9"/>
    <path id="Shape-2" data-name="Shape" d="M4.89,7a1.232,1.232,0,0,1-.584-.15L3.5,6.412l-.806.437a1.213,1.213,0,0,1-1.319-.1,1.3,1.3,0,0,1-.5-1.265l.154-.926L.38,3.905A1.314,1.314,0,0,1,.062,2.578,1.256,1.256,0,0,1,1.074,1.7l.9-.135.4-.842a1.235,1.235,0,0,1,2.246,0l.4.842.9.135a1.257,1.257,0,0,1,1.012.88A1.317,1.317,0,0,1,6.62,3.905l-.652.655.154.926a1.3,1.3,0,0,1-.5,1.265A1.223,1.223,0,0,1,4.89,7ZM3.5,4.633a1.228,1.228,0,0,1,.583.149l.251.136-.048-.289a1.32,1.32,0,0,1,.36-1.145l.2-.205-.281-.041a1.257,1.257,0,0,1-.943-.707L3.5,2.266l-.125.264a1.26,1.26,0,0,1-.944.707l-.281.041.2.205a1.32,1.32,0,0,1,.36,1.145l-.048.289.251-.136A1.228,1.228,0,0,1,3.5,4.633Z" transform="translate(47 23)"/>
    <path id="Path-7" data-name="Path" d="M.907,4.728C.907,4.86.7,5,.45,5,.183,5,0,4.86,0,4.728V.266C0,.107.183,0,.45,0,.7,0,.907.107.907.266V2.307A.969.969,0,0,1,1.792,1.8,1.3,1.3,0,0,1,3,3.152V4.727C3,4.907,2.768,5,2.543,5s-.45-.093-.45-.273V3.152a.631.631,0,0,0-.611-.6.58.58,0,0,0-.576.6V4.728Z" transform="translate(5 25)"/>
    <path id="Path-8" data-name="Path" d="M.461,3.057c0,.227.05.309.2.309H.8c.132,0,.2.157.2.314S.932,4,.8,4H.661C.232,4,0,3.715,0,3.057V.233A.236.236,0,0,1,.229,0,.232.232,0,0,1,.461.233v1H.882c.075,0,.118.14.118.274s-.043.273-.118.273H.461V3.057Z" transform="translate(10 25)"/>
    <path id="Path-9" data-name="Path" d="M.461,3.057c0,.227.05.309.2.309H.8c.132,0,.2.157.2.314S.932,4,.8,4H.661C.232,4,0,3.715,0,3.057V.233A.236.236,0,0,1,.229,0,.232.232,0,0,1,.461.233v1H.882c.075,0,.118.14.118.274s-.043.273-.118.273H.461Z" transform="translate(12 25)"/>
    <path id="Shape-3" data-name="Shape" d="M.434,4C.166,4,0,3.879,0,3.766V.262C0,.13.177.034.42.034S.834.128.834.262V.433A1.142,1.142,0,0,1,1.766,0,1.2,1.2,0,0,1,3,1.157v.467A1.235,1.235,0,0,1,1.793,2.793a1.06,1.06,0,0,1-.9-.451V3.766C.89,3.891.677,4,.434,4ZM1.483.644a.554.554,0,0,0-.593.512v.57a.633.633,0,0,0,.607.422.606.606,0,0,0,.614-.525V1.157A.6.6,0,0,0,1.483.644Z" transform="translate(13 26)"/>
    <path id="Path-10" data-name="Path" d="M2.063,2.137C2.063,1.6.115,1.935.115.912.115.478.484,0,1.586,0c.666,0,1.307.172,1.307.4a.43.43,0,0,1-.386.38A5.536,5.536,0,0,0,1.6.6c-.411,0-.575.153-.575.275C1.027,1.323,3,1.017,3,2.106,3,2.651,2.458,3,1.488,3,.649,3,0,2.743,0,2.473a.39.39,0,0,1,.353-.349c.238,0,.42.275,1.11.275C1.948,2.4,2.063,2.259,2.063,2.137Z" transform="translate(16 26)"/>
    <path id="Shape-4" data-name="Shape" d="M.5,3A.491.491,0,0,1,0,2.524a.486.486,0,0,1,.5-.477.493.493,0,0,1,.5.477A.5.5,0,0,1,.5,3ZM.5.953A.491.491,0,0,1,0,.477.486.486,0,0,1,.5,0,.493.493,0,0,1,1,.477.5.5,0,0,1,.5.953Z" transform="translate(21 26)"/>
    <path id="Path-11" data-name="Path" d="M3,.277a.224.224,0,0,1-.027.111L.58,4.865A.3.3,0,0,1,.32,5,.3.3,0,0,1,0,4.729a.2.2,0,0,1,.033-.1L2.426.129A.264.264,0,0,1,2.667,0,.315.315,0,0,1,3,.277Z" transform="translate(22 25)"/>
    <path id="Path-12" data-name="Path" d="M3,.277a.229.229,0,0,1-.027.111L.58,4.865A.294.294,0,0,1,.32,5,.3.3,0,0,1,0,4.729a.2.2,0,0,1,.033-.1L2.426.129A.264.264,0,0,1,2.667,0,.315.315,0,0,1,3,.277Z" transform="translate(24 25)"/>
    <path id="Path-13" data-name="Path" d="M3.069,2.859a.3.3,0,0,1-.3.141c-.147,0-.277-.049-.312-.141L2,1.527,1.555,2.853c-.035.1-.177.147-.324.147a.291.291,0,0,1-.295-.147L.029.44A.258.258,0,0,1,0,.324C0,.135.295,0,.495,0A.214.214,0,0,1,.713.128L1.3,1.863,1.743.354C1.785.214,1.885.2,2,.2s.218.018.259.159L2.7,1.869,3.293.128A.218.218,0,0,1,3.511,0C3.7,0,4,.134,4,.33a.231.231,0,0,1-.024.11Z" transform="translate(27 26)"/>
    <path id="Path-14" data-name="Path" d="M3.069,2.859a.3.3,0,0,1-.3.141.322.322,0,0,1-.312-.141L2,1.527,1.555,2.853c-.035.1-.176.147-.324.147a.292.292,0,0,1-.295-.147L.029.44A.258.258,0,0,1,0,.324C0,.135.295,0,.495,0A.215.215,0,0,1,.713.128L1.3,1.863,1.744.354C1.785.214,1.885.2,2,.2s.218.018.259.159L2.7,1.869l.6-1.741A.218.218,0,0,1,3.511,0C3.7,0,4,.134,4,.33a.231.231,0,0,1-.024.11Z" transform="translate(33 26)"/>
    <path id="Path-15" data-name="Path" d="M3.069,2.859a.3.3,0,0,1-.3.141.322.322,0,0,1-.312-.141L2,1.527,1.555,2.853c-.035.1-.177.147-.324.147a.292.292,0,0,1-.295-.147L.029.44A.258.258,0,0,1,0,.324C0,.135.295,0,.495,0A.215.215,0,0,1,.713.128L1.3,1.863,1.744.354C1.785.214,1.885.2,2,.2s.218.018.259.159L2.7,1.869l.6-1.741A.217.217,0,0,1,3.511,0C3.7,0,4,.134,4,.33a.231.231,0,0,1-.024.11Z" transform="translate(37 26)"/>
  </g>
  <text id="Browse_on" data-name="Browse on" transform="translate(87 16)" fill="#b2b2b2" font-size="14" font-family="Arial-BoldMT, Arial" font-weight="700" letter-spacing="0.05em"><tspan x="0" y="13">BROWSE ON</tspan></text>
  <text id="Desktop" transform="translate(86 37)" fill="#fff" font-size="24" font-family="Arial-BoldMT, Arial" font-weight="700"><tspan x="0" y="22">DESKTOP</tspan></text>
</svg>
