<svg xmlns="http://www.w3.org/2000/svg" width="46" height="43" viewBox="0 0 46 43">
  <g id="facebook" transform="translate(0)">
    <path id="Path" d="M39.8,0H6.2A6.007,6.007,0,0,0,0,5.794V37.205A6.007,6.007,0,0,0,6.2,43H22.771L22.8,27.634H18.529a.977.977,0,0,1-1.008-.938l-.02-4.953a.976.976,0,0,1,1.008-.946h4.263V16.011c0-5.554,3.629-8.578,8.929-8.578H36.05a.977.977,0,0,1,1.008.942v4.176a.977.977,0,0,1-1.007.942H33.381c-2.882,0-3.441,1.28-3.441,3.159V20.8h6.334a.967.967,0,0,1,1,1.053L36.647,26.8a.986.986,0,0,1-1,.831H29.969L29.94,43H39.8A6.007,6.007,0,0,0,46,37.206V5.794A6.007,6.007,0,0,0,39.8,0Z" fill="#475993"/>
  </g>
</svg>
