<?xml version="1.0" encoding="UTF-8"?>
<svg width="46px" height="43px" viewBox="0 0 46 43" version="1.1" xmlns="http://www.w3.org/2000/svg" xmlns:xlink="http://www.w3.org/1999/xlink">
    <!-- Generator: Sketch 57.1 (83088) - https://sketch.com -->
    <title>Group 5</title>
    <desc>Created with Sketch.</desc>
    <g id="Page-1" stroke="none" stroke-width="1" fill="none" fill-rule="evenodd">
        <g id="B2B-Sales-Copy-4" transform="translate(-1100.000000, -3256.000000)" fill="#475993" fill-rule="nonzero">
            <g id="Group-5" transform="translate(1100.000000, 3256.000000)">
                <g id="facebook">
                    <path d="M39.80125,0 L6.19863743,0 C2.77529264,0 0,2.59417106 0,5.79433594 L0,37.2054537 C0,40.4056186 2.77518011,43 6.19863743,43 L22.7712856,43 L22.7995303,27.6339912 L18.5289578,27.6339912 C17.9739668,27.6339912 17.5235148,27.2144975 17.5213768,26.6957054 L17.5008966,21.742671 C17.4987585,21.2210388 17.9505608,20.7971271 18.5085901,20.7971271 L22.7713982,20.7971271 L22.7713982,16.0112381 C22.7713982,10.457259 26.4001076,7.43307533 31.7003168,7.43307533 L36.0495468,7.43307533 C36.6060007,7.43307533 37.0572404,7.85477803 37.0572404,8.37504281 L37.0572404,12.5514668 C37.0572404,13.0715212 36.6063383,13.4931187 36.0501095,13.4934342 L33.3810438,13.4945913 C30.498624,13.4945913 29.9404822,14.7749518 29.9404822,16.6539429 L29.9404822,20.7972323 L36.2741539,20.7972323 C36.8776447,20.7972323 37.3458762,21.2898324 37.2747581,21.850069 L36.6467361,26.8031033 C36.5866458,27.2770849 36.156674,27.6342016 35.6461318,27.6342016 L29.9687268,27.6342016 L29.9404822,43 L39.8014751,43 C43.2248199,43 46,40.4058289 46,37.2057692 L46,5.79433594 C46,2.59417106 43.2247074,0 39.80125,0 Z" id="Path"></path>
                </g>
            </g>
        </g>
    </g>
</svg>