<svg xmlns="http://www.w3.org/2000/svg" width="34" height="34" viewBox="0 0 34 34">
  <g id="twitter" transform="translate(-612 -200)">
    <g id="Ellipse_455" data-name="Ellipse 455" transform="translate(612 200)" fill="#fff" stroke="#707070" stroke-width="1">
      <circle cx="17" cy="17" r="17" stroke="none"/>
      <circle cx="17" cy="17" r="16.5" fill="none"/>
    </g>
    <path id="Icon_zocial-twitter" data-name="Icon zocial-twitter" d="M-4.738,15.506q.537.052,1.073.053a8.873,8.873,0,0,0,5.616-1.931,4.349,4.349,0,0,1-2.629-.9A4.4,4.4,0,0,1-2.27,10.5a4.253,4.253,0,0,0,.841.072,4.421,4.421,0,0,0,1.2-.161,4.352,4.352,0,0,1-2.6-1.547A4.374,4.374,0,0,1-3.862,5.99V5.936a4.234,4.234,0,0,0,2.056.554,4.431,4.431,0,0,1-1.475-1.6,4.4,4.4,0,0,1-.546-2.154A4.384,4.384,0,0,1-3.2.463,12.549,12.549,0,0,0,.906,3.8,12.7,12.7,0,0,0,6.1,5.185a5.075,5.075,0,0,1-.126-1.037A4.34,4.34,0,0,1,7.3.964,4.362,4.362,0,0,1,10.5-.359a4.336,4.336,0,0,1,3.291,1.431A9.081,9.081,0,0,0,16.654-.037a4.3,4.3,0,0,1-1.967,2.5,9.215,9.215,0,0,0,2.576-.715,8.66,8.66,0,0,1-2.236,2.343v.591A12.943,12.943,0,0,1,14.5,8.307a12.888,12.888,0,0,1-1.61,3.471A13.818,13.818,0,0,1,10.3,14.719a11.456,11.456,0,0,1-3.6,2.048,13.171,13.171,0,0,1-4.517.759A12.672,12.672,0,0,1-4.738,15.506Z" transform="translate(622.738 208.36)" fill="#333"/>
  </g>
</svg>
