<svg xmlns="http://www.w3.org/2000/svg" width="107.827" height="108.828" viewBox="0 0 107.827 108.828">
  <g id="no-image" transform="translate(0 1.001)">
    <path id="Path_28" data-name="Path 28" d="M294.113,95.6H240.2l-4.215,28.581,58.129-4.215Z" transform="translate(-186.286 -75.468)" fill="#21a4de"/>
    <path id="Path_29" data-name="Path 29" d="M0,95.6v24.365l53.914,4.215V95.6Z" transform="translate(0 -75.468)" fill="#21a4de"/>
    <path id="Path_34" data-name="Path 34" d="M294.113,211.3H240.2l-4.215,28.2,4.215,35.129h13.422l13.534-4.215,13.534,4.215h13.422Z" transform="translate(-186.286 -166.797)" fill="#dce4ec"/>
    <rect id="Rectangle_12" data-name="Rectangle 12" width="27.068" height="54.021" transform="translate(67.335 53.806)" fill="#bdc4cb"/>
    <rect id="Rectangle_13" data-name="Rectangle 13" width="53.914" height="63.327" transform="translate(0 44.5)" fill="#f7f7f8"/>
    <rect id="Rectangle_14" data-name="Rectangle 14" width="39.251" height="33.023" transform="translate(5.037 53.806)" fill="#dce4ec"/>
    <path id="Union_1" data-name="Union 1" d="M8233,2083.142a20.143,20.143,0,1,1,20.143,20.142A20.166,20.166,0,0,1,8233,2083.142Z" transform="translate(-8199.227 -2064)" fill="#f2f2fc"/>
    <path id="Path_48" data-name="Path 48" d="M251.259,61.035h6.916V54.717h-6.916V47.8H248.1l-2.108,10.067L248.1,67.951h3.159Z" transform="translate(-194.187 -38.734)" fill="#00dc3b"/>
    <path id="Path_49" data-name="Path 49" d="M215.077,47.8v6.916h-6.916v6.318h6.916v6.916h3.159V47.8Z" transform="translate(-164.322 -38.734)" fill="#00dc3b"/>
  </g>
</svg>
