<svg xmlns="http://www.w3.org/2000/svg" xmlns:xlink="http://www.w3.org/1999/xlink" width="17" height="17" viewBox="0 0 17 17">
  <defs>
    <clipPath id="clip-path">
      <path id="Path_22" data-name="Path 22" d="M2.467-33A8.224,8.224,0,0,1,8.5-35.5a8.193,8.193,0,0,1,6.015,2.485A8.193,8.193,0,0,1,17-27a8.193,8.193,0,0,1-2.485,6.015A8.193,8.193,0,0,1,8.5-18.5a8.193,8.193,0,0,1-6.015-2.485A8.193,8.193,0,0,1,0-27,8.162,8.162,0,0,1,2.467-33Zm10.4,3.15a.155.155,0,0,0,.038-.114.22.22,0,0,0-.038-.152l-1.176-.911a.22.22,0,0,0-.152-.038.155.155,0,0,0-.114.038L7.21-25.6Q5.54-27.19,5.5-27.228a.328.328,0,0,0-.228-.114q-.038,0-.152.114l-.987.987a.22.22,0,0,0-.038.152.155.155,0,0,0,.038.114l.076.038,3,2.884a.311.311,0,0,0,.19.114.311.311,0,0,0,.19-.114Z" transform="translate(0 35.5)" fill="#32c5ff"/>
    </clipPath>
    <clipPath id="clip-path-2">
      <path id="Path_21" data-name="Path 21" d="M-278,169.371H219.371V-328H-278Z" transform="translate(278 328)" fill="#32c5ff"/>
    </clipPath>
  </defs>
  <g id="Group_58" data-name="Group 58" transform="translate(0 35.5)">
    <g id="Group_4" data-name="Group 4" transform="translate(0 -35.5)" clip-path="url(#clip-path)">
      <g id="Group_3" data-name="Group 3" transform="translate(-135.029 -142.071)" clip-path="url(#clip-path-2)">
        <path id="Path_20" data-name="Path 20" d="M-5-40.5H16.857v21.857H-5Z" transform="translate(137.6 180.143)" fill="#32c5ff"/>
      </g>
    </g>
  </g>
</svg>
