<?xml version="1.0" encoding="UTF-8"?>
<svg width="57px" height="52px" viewBox="0 0 57 52" version="1.1" xmlns="http://www.w3.org/2000/svg" xmlns:xlink="http://www.w3.org/1999/xlink">
    <!-- Generator: Sketch 57.1 (83088) - https://sketch.com -->
    <title>internet</title>
    <desc>Created with Sketch.</desc>
    <g id="Page-1" stroke="none" stroke-width="1" fill="none" fill-rule="evenodd">
        <g id="B2B-Sales-Copy-4" transform="translate(-342.000000, -2142.000000)" fill-rule="nonzero">
            <g id="Group-2" transform="translate(328.000000, 2129.000000)">
                <g id="internet" transform="translate(14.000000, 13.000000)">
                    <path d="M53,26.5 C53,40.5830433 41.8073402,52 28,52 C14.1926598,52 3,40.5830433 3,26.5 C3,12.416513 14.1926598,1 28,1 C41.8073402,1 53,12.416513 53,26.5 Z" id="Path" fill="#000000"></path>
                    <path d="M53,26.395311 C53,39.9838953 41.5813103,51 27.4951379,51 C24.88713,51 22.3701093,50.6223491 20,49.9201409 C21.0940673,50.0584417 22.2098829,50.129947 23.3438959,50.129947 C37.4296244,50.129947 48.848758,39.1138423 48.848758,25.525258 C48.848758,14.4522059 41.267071,5.08885952 30.8390338,2 C43.3451333,3.57996832 53,13.9002875 53,26.395311 Z" id="Path" fill="#535353"></path>
                    <path d="M54.750841,33 L1.24915904,33 C0.559436629,33 0,32.3919212 0,31.6411595 L0,23.3588405 C0,22.6085575 0.558996503,22 1.24915904,22 L54.750841,22 C55.4410035,22 56,22.6085575 56,23.3588405 L56,31.6411595 C56,32.3919212 55.4410035,33 54.750841,33 Z" id="Path" fill="#F6F6F6"></path>
                    <path d="M54.7600095,33 L45,33 L45,22 L54.7600095,22 C55.4446695,22 56,22.599554 56,23.3387367 L56,31.6612633 C56,32.4009176 55.4451064,33 54.7600095,33 Z" id="Path" fill="#C9F0FF"></path>
                    <path d="M50.8512855,25.2279606 L51.3203454,26.2188716 C51.3773988,26.3396004 51.4878376,26.4229202 51.6153927,26.4424748 L52.6639514,26.6014628 C52.9854876,26.6499242 53.1138576,27.0622725 52.8811615,27.2986288 L52.1223523,28.0701875 C52.0298443,28.164135 51.9878694,28.2993171 52.0098757,28.4319487 L52.1887786,29.5210582 C52.2437943,29.8551877 51.9075872,30.1098234 51.6202829,29.9521108 L50.6821631,29.4377383 C50.5680564,29.3752484 50.431536,29.3752484 50.3174293,29.4377383 L49.3797171,29.9521108 C49.0924128,30.1098234 48.7562057,29.8551877 48.8112213,29.5210582 L48.9901243,28.4319487 C49.0121306,28.2993171 48.9697482,28.164135 48.8776477,28.0701875 L48.1188385,27.2986288 C47.8861424,27.0622725 48.0145124,26.6499242 48.3360486,26.6014628 L49.3846073,26.4424748 C49.5121623,26.4229202 49.6226012,26.3396004 49.6796546,26.2188716 L50.1487145,25.2279606 C50.2921629,24.9240131 50.7078371,24.9240131 50.8512855,25.2279606 L50.8512855,25.2279606 Z" id="Path" fill="#FFD86E"></path>
                    <path d="M54.6487859,33 L53,33 L53,22 L54.6487859,22 C55.3948579,22 56,22.6081052 56,23.3588996 L56,31.6415792 C56,32.3918948 55.395334,33 54.6487859,33 L54.6487859,33 Z" id="Path" fill="#9AE7FD"></path>
                    <path d="M54.9299927,21.3438521 L53.912384,21.3438521 C52.9887085,16.1715219 50.5307922,11.4098609 46.7612915,7.61533016 C41.883728,2.70437474 35.3979951,0 28.5,0 C21.6020049,0 15.116272,2.70437474 10.2387085,7.61533016 C6.44224554,11.4374432 3.97519681,16.2402587 3.06717679,21.4563702 L2.07000732,21.4563702 C0.928459195,21.4563702 0,22.3911023 0,23.540363 L0,31.1136631 C0,32.2624861 0.928459195,33.197656 2.07000732,33.197656 L3.68469998,33.197656 C5.06369019,38.0188597 7.81340793,42.3860506 11.679451,45.7296332 C12.0295258,46.0321624 12.5570298,45.9923214 12.8579636,45.6398814 C13.1588974,45.2870037 13.1188889,44.7559357 12.768814,44.4529688 C11.7686005,43.5882868 10.8488388,42.6496144 10.0134429,41.6496481 C11.2911072,41.1076348 12.5966034,40.6606271 13.9116669,40.2941771 C14.536148,41.4035968 15.2367325,42.4740512 16.013855,43.4963459 C17.7163925,45.7366382 19.6389771,47.7076752 21.6881104,49.3324016 C19.9855728,48.8302293 18.3391342,48.1402351 16.7861938,47.2711751 C16.3826294,47.045701 15.8738251,47.1919308 15.6498642,47.5982219 C15.4254685,48.0045129 15.5707168,48.5167548 15.9742813,48.7426666 C19.7842255,50.8735056 24.1155854,52 28.5,52 C35.3979951,52 41.8832932,49.2956253 46.7612915,44.3846697 C49.8945694,41.2306605 52.120697,37.407234 53.3139954,33.2361836 L54.9299927,33.2361836 C56.0715408,33.2361836 57,32.3014515 57,31.1521907 L57,23.427845 C57,22.279022 56.0715408,21.3438521 54.9299927,21.3438521 L54.9299927,21.3438521 Z M52.2107163,21.3438521 L46.3964309,21.3438521 C46.3268509,20.9077897 46.2498779,20.4717274 46.1602935,20.0361028 C45.6636658,17.6224363 44.8874131,15.3177854 43.8441467,13.1422894 C43.9980927,13.0998215 44.1529083,13.0582292 44.3059844,13.0144479 C45.3701248,12.7079783 46.724762,12.2911797 48.055481,11.7180817 C50.1337509,14.590577 51.5440522,17.8645472 52.2107163,21.3438521 Z M44.7208557,21.4563702 L36.0842285,21.4563702 C36.0555268,21.0343179 36.0242158,20.6122655 35.9872513,20.1910889 C35.8215637,18.3084902 35.5771636,16.4858721 35.2623139,14.742936 C37.6580429,14.4925067 39.9720154,14.1006635 42.1920547,13.5691577 C43.2509766,15.7096285 44.0315781,17.987135 44.5234223,20.3775974 C44.5973511,20.7366046 44.6612778,21.0964873 44.7208557,21.4563702 L44.7208557,21.4563702 Z M45.5792999,8.80486986 C46.071579,9.30047489 46.5390701,9.81446803 46.9830781,10.3437847 C45.8697968,10.7938572 44.7495576,11.1362274 43.8463211,11.3962887 C43.5845261,11.4715926 43.3209915,11.5438319 43.0565872,11.6147577 C42.5282134,10.6611996 41.9476548,9.73434811 41.3118667,8.8377058 C39.6458588,6.48927362 37.6702194,4.43330083 35.4145203,2.68948913 C39.2148972,3.82692888 42.6973801,5.90347893 45.5792999,8.80486986 Z M31.077507,1.82042911 C34.6269607,3.82911792 37.6128159,6.51816927 39.9515762,9.8157815 C40.4612503,10.5351093 40.9330903,11.2754521 41.3697051,12.0337454 C39.3053513,12.5078975 37.1575012,12.8594618 34.9357224,13.0858114 C33.9681244,8.55050006 32.502594,4.64388916 30.6669846,1.78058805 C30.8039703,1.79240904 30.9409561,1.80554339 31.077507,1.82042911 Z M28.5,1.68295558 C28.5204392,1.68295558 28.5404434,1.68339336 28.5608826,1.68339336 C30.591751,4.38163877 32.2155762,8.41215107 33.2614517,13.2320412 C31.475853,13.3616341 29.6467666,13.4146095 27.7772369,13.3870272 C26.5082703,13.3686391 25.1501541,13.328798 23.736374,13.242111 C24.7822495,8.41784262 26.4069443,4.38339002 28.4391174,1.68339336 C28.4595566,1.68339336 28.4795608,1.68295558 28.5,1.68295558 L28.5,1.68295558 Z M26.3330154,1.78058805 C24.4926223,4.65045639 23.0249175,8.56888829 22.0573196,13.117334 C19.9590454,12.9334523 17.7681426,12.6291719 15.5763702,12.1265618 C16.027771,11.3354326 16.5174409,10.564005 17.0484238,9.81534371 C19.3871841,6.51816927 22.3730393,3.82911792 25.922493,1.81999122 C26.0590439,1.80554339 26.1960297,1.79240904 26.3330154,1.78058805 Z M21.7311631,14.778399 C21.4193574,16.5103897 21.1771316,18.3211868 21.0127487,20.1910889 C20.9757842,20.6122655 20.9444732,21.0343179 20.9162063,21.4563702 L12.2782745,21.4563702 C12.3374175,21.0964873 12.4026489,20.7366046 12.4765777,20.3775974 C12.9610291,18.0221601 13.7272797,15.7770518 14.7622833,13.6637254 C17.1219177,14.2337588 19.4793777,14.57394 21.7311631,14.778399 Z M11.4207001,8.80486986 C14.3026199,5.90347893 17.7851028,3.82692888 21.5854797,2.68948913 C19.3293457,4.43330083 17.3537063,6.48927362 15.6881333,8.8377058 C15.0332107,9.76105482 14.4369965,10.7172398 13.8964463,11.7014448 C12.5861664,11.3358704 11.285019,10.8897383 10.0121384,10.3494763 C10.4574509,9.81840832 10.9266816,9.30266393 11.4207001,8.80486986 Z M8.94364935,11.7198329 C10.3117676,12.3244536 11.7094575,12.8200585 13.1154099,13.2267875 C12.0925827,15.3777658 11.3298111,17.653521 10.8397065,20.0361028 C10.7427292,20.5089415 10.6587983,20.9826559 10.5853042,21.4563702 L4.76754001,21.4563702 C5.42507174,17.9354731 6.84363553,14.6225373 8.94364935,11.7198329 Z M2.07000732,31.5147005 C1.85039523,31.5147005 1.67166138,31.3347591 1.67166138,31.1132253 L1.67166138,23.5399253 C1.67166138,23.3188294 1.85039523,23.138888 2.07000732,23.138888 L26.1968994,23.138888 C26.6587372,23.138888 27.03273,22.7623683 27.03273,22.2974101 C27.03273,21.8328899 26.6587372,21.4559324 26.1968994,21.4559324 L22.5909119,21.4559324 C22.6170044,21.0837908 22.6452713,20.7112113 22.677887,20.3395076 C22.8435745,18.4564712 23.0888443,16.6391068 23.4054336,14.9075539 C24.9301071,15.0060621 26.3912888,15.0498434 27.7533188,15.069545 C28.0829544,15.074361 28.4117202,15.0769878 28.7396164,15.0769878 C30.3886643,15.0769878 32.0068359,15.0148183 33.592392,14.8939818 C33.9098511,16.629475 34.1559907,18.4516552 34.322113,20.3395076 C34.3547287,20.7112113 34.3834305,21.0837908 34.409523,21.4559324 L31.4154053,21.4559324 C30.9540024,21.4559324 30.5795746,21.8328899 30.5795746,22.2974101 C30.5795746,22.7623683 30.9540024,23.138888 31.4154053,23.138888 L44.3799133,23.138888 L44.3799133,31.5142626 L2.07000732,31.5142626 L2.07000732,31.5147005 Z M44.1794358,33.1972182 C43.6980286,35.0062641 43.0317993,36.7601455 42.1868362,38.4290911 C39.9707107,37.8988987 37.6619568,37.5061799 35.2705764,37.2557505 C35.5106277,35.9401205 35.7076264,34.583774 35.8598328,33.197656 L44.1794358,33.197656 L44.1794358,33.1972182 Z M34.1799087,33.1972182 C34.0290069,34.5338633 33.8350525,35.8402991 33.5997849,37.106456 C31.6967697,36.961102 29.7467881,36.9006837 27.7533188,36.9300172 C26.3886795,36.9497188 24.9248886,36.9935002 23.3976059,37.092446 C23.1636429,35.8306672 22.9705581,34.5290473 22.8200913,33.1972182 L34.1799087,33.1972182 Z M8.94886774,40.277978 C7.3963623,38.123935 6.20828247,35.7317213 5.42855075,33.1972182 L11.0958481,33.1972182 C11.5759507,35.1218469 12.2500076,36.9908732 13.114975,38.7732125 C11.710762,39.1795036 10.3148117,39.674233 8.94886774,40.277978 Z M12.8223037,33.1972182 L21.1388626,33.1972182 C21.2897644,34.571953 21.4854584,35.9173543 21.7229004,37.2224767 C19.4745942,37.4264978 17.1210479,37.7666791 14.7657623,38.3349611 C13.9434128,36.6944734 13.2945786,34.9721147 12.8223037,33.1972182 Z M25.9142304,50.1743171 C22.7870407,48.4007342 19.824234,45.7405786 17.3415298,42.4736133 C16.7057419,41.6378271 16.1260528,40.7665779 15.5989838,39.8677466 C17.7816238,39.368639 19.9629593,39.0661099 22.0525361,38.882666 C22.3830414,40.4110734 22.7748642,41.8742465 23.2262649,43.249419 C23.8924942,45.2760584 24.9383697,47.9795574 26.3447571,50.2180986 C26.2012481,50.2054019 26.0577393,50.1900785 25.9142304,50.1743171 Z M28.5,50.3170444 C28.4795608,50.3170444 28.4595566,50.3161689 28.4391174,50.3161689 C27.1231841,48.5609739 25.8716125,45.9410972 24.8135605,42.720978 C24.4026031,41.4701445 24.0438308,40.1426935 23.7368088,38.7574512 C25.1505889,38.671202 26.5082703,38.6309231 27.7772369,38.6125349 C29.6467666,38.5858283 31.475418,38.6388038 33.2610168,38.7683966 C32.9544297,40.1496986 32.5960923,41.473647 32.1864395,42.720978 C31.1288223,45.9410972 29.8768159,48.5609739 28.5608826,50.3161689 C28.5404434,50.3166066 28.5204392,50.3170444 28.5,50.3170444 L28.5,50.3170444 Z M30.6535034,50.2207254 C32.0607605,47.9817465 33.1075058,45.276934 33.7733002,43.249419 C34.2220917,41.8838783 34.6113052,40.4320884 34.9400711,38.9150641 C37.1522827,39.1405382 39.2905655,39.4894756 41.3462219,39.9605631 C40.8339385,40.8265585 40.2720795,41.6667227 39.6584702,42.4736133 C37.1731567,45.7436432 34.2073059,48.405988 31.0770722,50.179571 C30.9361724,50.1944566 30.7948379,50.2080289 30.6535034,50.2207254 L30.6535034,50.2207254 Z M45.5792999,43.1946924 C42.6673736,46.1262924 39.1422729,48.215539 35.2962341,49.3446604 C37.3510208,47.717745 39.2792588,45.7423299 40.986145,43.4963459 C41.7432632,42.5007578 42.4268875,41.4587614 43.0387573,40.3799886 C43.3092499,40.4526656 43.5788726,40.5266562 43.8463211,40.6032735 C44.7486877,40.8633348 45.8680572,41.205705 46.9809036,41.6553396 C46.5368958,42.1846563 46.071579,42.6995251 45.5792999,43.1946924 L45.5792999,43.1946924 Z M48.0528716,40.2806049 C46.7230225,39.7083824 45.3692551,39.2915838 44.3059844,38.9855522 C44.1529083,38.9413329 43.9980927,38.9001785 43.8441467,38.8577105 C44.7230301,37.0622369 45.4070893,35.1770114 45.8941498,33.2361836 L51.5666656,33.2361836 C50.7908477,35.7549254 49.6088562,38.1300643 48.0528716,40.2806049 Z M55.3283386,31.1136631 C55.3283386,31.3347591 55.1496048,31.5147005 54.9299927,31.5147005 L46.0511399,31.5147005 L46.0511399,23.138888 L54.9299927,23.138888 C55.1496048,23.138888 55.3283386,23.3192672 55.3283386,23.540363 L55.3283386,31.1136631 Z" id="Shape" fill="#CBCBC9"></path>
                    <path d="M52.9266234,24.6984945 L52.0261233,24.563494 L51.6234394,23.7207501 C51.4105859,23.2758316 50.9805353,23 50.5000947,23 C50.0196542,23 49.5891691,23.2762801 49.3767501,23.7207501 L48.9740662,24.563494 L48.0735661,24.6984945 C47.5979039,24.7698071 47.2108583,25.107084 47.0622953,25.5784645 C46.9137323,26.0502934 47.0353628,26.5584514 47.3794034,26.9046985 L48.0309955,27.5604151 L47.8772197,28.4865813 C47.7955535,28.9750049 47.9866872,29.4598405 48.3754704,29.7513699 C48.7638192,30.0428991 49.2690202,30.0810222 49.694727,29.8500413 L50.5000947,29.4127474 L51.3054625,29.8500413 C51.4905146,29.9500582 51.6903362,29.9998425 51.8897233,29.9998425 C52.1481881,29.9998425 52.4053498,29.9159718 52.6247191,29.7513699 C53.013068,29.4598405 53.2042016,28.9750049 53.1229698,28.4865813 L52.9691941,27.5604151 L53.620786,26.9046985 C53.9648266,26.5584514 54.0860228,26.0502934 53.9378942,25.5784645 C53.7893313,25.107084 53.4018511,24.7698071 52.9266234,24.6984945 L52.9266234,24.6984945 Z M51.6464623,26.4839992 C51.3515083,26.7813591 51.216846,27.2092345 51.2863491,27.6285881 L51.3345669,27.9178749 L51.0830524,27.7815289 C50.7181609,27.5832889 50.282463,27.5832889 49.9171371,27.7815289 L49.6656226,27.9178749 L49.713406,27.6285881 C49.7833435,27.2092345 49.6486811,26.7813591 49.3532928,26.4839992 L49.1499962,26.2790317 L49.4310494,26.2368722 C49.8389461,26.1758753 50.1916745,25.9112563 50.3745547,25.5295772 L50.5000947,25.2663039 L50.6260692,25.5295772 C50.808515,25.9112563 51.1612434,26.1758753 51.5691401,26.2368722 L51.8501935,26.2790317 L51.6464623,26.4839992 Z" id="Shape" fill="#000000"></path>
                    <path d="M5.90682715,29.7275281 C5.90682715,29.8604868 5.69558054,30 5.44970313,30 C5.18304743,30 5,29.8604868 5,29.7275281 L5,25.2663857 C5,25.1067416 5.18304743,25 5.44970313,25 C5.69558054,25 5.90682715,25.1067416 5.90682715,25.2663857 L5.90682715,27.3071161 C6.03298153,27.048221 6.34910953,26.8019663 6.79188661,26.8019663 C7.43799472,26.8019663 8,27.4138577 8,28.1516854 L8,29.7270599 C8,29.9068352 7.76846966,30 7.54337068,30 C7.33261877,30 7.09366755,29.9068352 7.09366755,29.7270599 L7.09366755,28.1516854 C7.09366755,27.8525281 6.81266491,27.5533707 6.48268466,27.5533707 C6.19475597,27.5533707 5.90633245,27.7790262 5.90633245,28.1516854 L5.90633245,29.7275281 L5.90682715,29.7275281 Z" id="Path" fill="#000000"></path>
                    <path d="M10.460513,28.0565806 C10.460513,28.2837228 10.5105633,28.3653137 10.6607143,28.3653137 L10.8000503,28.3653137 C10.9320925,28.3653137 10.9964788,28.5227552 10.9964788,28.6797868 C10.9964788,28.8429684 10.9320925,29 10.8000503,29 L10.6607143,29 C10.2321429,29 10,28.7146371 10,28.0565806 L10,25.2328823 C10,25.093071 10.1212273,25 10.2286217,25 C10.346328,25 10.4607646,25.093071 10.4607646,25.2328823 L10.4607646,26.2341123 L10.8822938,26.2341123 C10.9572434,26.2341123 11,26.3739238 11,26.5079951 C11,26.6473964 10.9572434,26.7814678 10.8822938,26.7814678 L10.4607646,26.7814678 L10.4607646,28.0565806 L10.460513,28.0565806 Z" id="Path" fill="#000000"></path>
                    <path d="M12.4607646,28.0565806 C12.4607646,28.2837228 12.5105633,28.3653137 12.6607142,28.3653137 L12.8000503,28.3653137 C12.9320925,28.3653137 12.9964788,28.5227552 12.9964788,28.6797868 C12.9964788,28.8429684 12.9320925,29 12.8000503,29 L12.6607142,29 C12.2321428,29 12,28.7146371 12,28.0565806 L12,25.2328823 C12,25.093071 12.1214788,25 12.2286217,25 C12.3465794,25 12.4607646,25.093071 12.4607646,25.2328823 L12.4607646,26.2341123 L12.8822938,26.2341123 C12.9572434,26.2341123 13,26.3739238 13,26.5079951 C13,26.6473964 12.9572434,26.7814678 12.8822938,26.7814678 L12.4607646,26.7814678 L12.4607646,28.0565806 Z" id="Path" fill="#000000"></path>
                    <path d="M13.8343857,26.2620122 L13.8343857,26.4329421 C13.9927149,26.2110543 14.3239437,26 14.7654202,26 C15.4550753,26 16,26.5244257 16,27.156786 L16,27.6238339 C16,28.2337245 15.434677,28.792256 14.7931035,28.792256 C14.3793104,28.792256 14.0203982,28.5755843 13.8897523,28.3420603 L13.8897523,29.766476 C13.8897523,29.8860466 13.6828558,30 13.4341914,30 C13.1792132,30 13,29.8860466 13,29.766476 L13,26.2620122 C13,26.1251881 13.1860127,26.0341057 13.4205925,26.0341057 C13.6619719,26.0341057 13.8343857,26.1251881 13.8343857,26.2620122 Z M15.1102477,27.156786 C15.1102477,26.9003912 14.8275863,26.6439964 14.4827586,26.6439964 C14.1932977,26.6439964 13.8897523,26.8373959 13.8897523,27.156786 L13.8897523,27.7265523 C13.8897523,27.846123 14.1447304,28.1482596 14.4963574,28.1482596 C14.8207868,28.1482596 15.1102477,27.8862473 15.1102477,27.6238339 L15.1102477,27.156786 Z" id="Shape" fill="#000000"></path>
                    <path d="M18.0628981,28.1365138 C18.0628981,27.5980744 16.1146055,27.9347607 16.1146055,26.9122 C16.1146055,26.4776548 16.4844686,26 17.5859542,26 C18.2521706,26 18.8929192,26.1715764 18.8929192,26.397902 C18.8929192,26.5082627 18.7534247,26.7776979 18.5068493,26.7776979 C18.3094733,26.7776979 18.0547946,26.6000862 17.6027398,26.6000862 C17.1917808,26.6000862 17.0273973,26.7531255 17.0273973,26.8755569 C17.0273973,27.3226038 19,27.0165254 19,28.105906 C19,28.651243 18.4576501,29 17.4875555,29 C16.6494309,29 16,28.7426355 16,28.4732002 C16,28.3447334 16.147598,28.1244431 16.3530774,28.1244431 C16.5915494,28.1244431 16.7727185,28.3999138 17.4632452,28.3999138 C17.9477138,28.3999138 18.0628981,28.2589452 18.0628981,28.1365138 Z" id="Path" fill="#000000"></path>
                    <path d="M22,26.4768015 C22,26.7290227 21.7704747,26.9531096 21.5039124,26.9531096 C21.2149192,26.9531096 21,26.7290227 21,26.4768015 C21,26.2171767 21.2149192,26 21.5039124,26 C21.7704747,26 22,26.2171767 22,26.4768015 Z M22,28.5231985 C22,28.7759132 21.7704747,29 21.5039124,29 C21.2149192,29 21,28.7759132 21,28.5231985 C21,28.2640672 21.2149192,28.0468905 21.5039124,28.0468905 C21.7704747,28.0468905 22,28.2640672 22,28.5231985 Z" id="Shape" fill="#000000"></path>
                    <path d="M25,25.277416 C25,25.314318 24.9934283,25.3512199 24.9732437,25.3881219 L22.5801909,29.8645481 C22.5332499,29.9505079 22.4266938,30 22.3201376,30 C22.1267407,30 22,29.8584701 22,29.728662 C22,29.6917601 22.0136129,29.654858 22.033328,29.624034 L24.4263809,25.1293739 C24.4733219,25.0429799 24.5667345,25 24.6667189,25 C24.8267877,25 25,25.1107059 25,25.277416 Z" id="Path" fill="#000000"></path>
                    <path d="M27,25.277416 C27,25.314318 26.9929588,25.3512199 26.9732437,25.3881219 L24.5797215,29.8645481 C24.5332499,29.9505079 24.4266938,30 24.3201378,30 C24.1267408,30 24,29.8584701 24,29.728662 C24,29.6917601 24.0131435,29.654858 24.0333281,29.624034 L26.4263809,25.1293739 C26.4733218,25.0429799 26.5662651,25 26.6667189,25 C26.8263182,25 27,25.1107059 27,25.277416 Z" id="Path" fill="#000000"></path>
                    <path d="M30.0691693,28.8593145 C30.0276885,28.9634304 29.8982682,29 29.7688478,29 C29.6215908,29 29.4917556,28.9509537 29.4564969,28.8593145 L29.0026962,27.5273196 L28.5551177,28.8532913 C28.519859,28.9509537 28.3784092,29 28.2311522,29 C28.1075391,29 27.977704,28.9634304 27.9366379,28.8532913 L27.0294513,26.4401261 C27.0058073,26.3910799 27,26.3545103 27,26.3239638 C27,26.1346622 27.2945141,26 27.4948667,26 C27.5948356,26 27.6831898,26.0425929 27.7126413,26.1282088 L28.3016696,27.86333 L28.7434408,26.3540799 C28.7849217,26.2138247 28.8848906,26.1953248 29.0026962,26.1953248 C29.1146946,26.1953248 29.2208856,26.2138247 29.2619517,26.3540799 L29.6979156,27.8693532 L30.2927512,26.1282088 C30.3222027,26.0486161 30.4047496,26 30.5109406,26 C30.6992637,26 31,26.134232 31,26.329987 C31,26.3665567 30.9941927,26.4091495 30.9763559,26.4401261 L30.0691693,28.8593145 Z" id="Path" fill="#000000"></path>
                    <path d="M36.0691694,28.8593145 C36.0281033,28.9634304 35.898683,29 35.7688479,29 C35.6215908,29 35.4921705,28.9509537 35.456497,28.8593145 L35.003111,27.5273196 L34.5551177,28.8532913 C34.519859,28.9509537 34.378824,29 34.2311521,29 C34.1075391,29 33.9781188,28.9634304 33.936638,28.8532913 L33.0294514,26.4401261 C33.0058073,26.3910799 33,26.3545103 33,26.3239638 C33,26.1346622 33.2945141,26 33.4948667,26 C33.5948357,26 33.6831899,26.0425929 33.7130561,26.1282088 L34.3020844,27.86333 L34.7438556,26.3540799 C34.7849217,26.2138247 34.8853054,26.1953248 35.003111,26.1953248 C35.1151094,26.1953248 35.2208857,26.2138247 35.2619516,26.3540799 L35.6979156,27.8693532 L36.293166,26.1282088 C36.3226175,26.0486161 36.4051643,26 36.5109406,26 C36.6996785,26 37,26.134232 37,26.329987 C37,26.3665567 36.9941926,26.4091495 36.9763559,26.4401261 L36.0691694,28.8593145 Z" id="Path" fill="#000000"></path>
                    <path d="M40.0691692,28.8593145 C40.0281033,28.9634304 39.898683,29 39.7688479,29 C39.6215908,29 39.4921705,28.9509537 39.4564969,28.8593145 L39.003111,27.5273196 L38.5551177,28.8532913 C38.519859,28.9509537 38.3784092,29 38.2311521,29 C38.1075391,29 37.9781188,28.9634304 37.9366379,28.8532913 L37.0294513,26.4401261 C37.0058073,26.3910799 37,26.3545103 37,26.3239638 C37,26.1346622 37.2945141,26 37.4948667,26 C37.5948356,26 37.6831898,26.0425929 37.713056,26.1282088 L38.3020844,27.86333 L38.7438556,26.3540799 C38.7849216,26.2138247 38.8848906,26.1953248 39.0026962,26.1953248 C39.1146945,26.1953248 39.2208855,26.2138247 39.2619516,26.3540799 L39.6979156,27.8693532 L40.293166,26.1282088 C40.3222026,26.0486161 40.4051643,26 40.5109406,26 C40.6992636,26 41,26.134232 41,26.329987 C41,26.3665567 40.9941926,26.4091495 40.9763558,26.4401261 L40.0691692,28.8593145 Z" id="Path" fill="#000000"></path>
                </g>
            </g>
        </g>
    </g>
</svg>