<?xml version="1.0" encoding="UTF-8"?>
<svg width="16px" height="12px" viewBox="0 0 16 12" version="1.1" xmlns="http://www.w3.org/2000/svg" xmlns:xlink="http://www.w3.org/1999/xlink">
    <!-- Generator: Sketch 57.1 (83088) - https://sketch.com -->
    <title></title>
    <desc>Created with Sketch.</desc>
    <g id="Page-1" stroke="none" stroke-width="1" fill="none" fill-rule="evenodd">
        <g id="B2B-Sales-Copy-4" transform="translate(-153.000000, -3339.000000)" fill="#2E3192" fill-rule="nonzero">
            <path d="M167.464286,3339 C167.86905,3339 168.226189,3339.14773 168.535714,3339.44318 C168.84524,3339.73864 169,3340.07954 169,3340.46591 L169,3349.53409 C169,3349.92046 168.84524,3350.26136 168.535714,3350.55682 C168.226189,3350.85227 167.86905,3351 167.464286,3351 L154.535714,3351 C154.13095,3351 153.773811,3350.85227 153.464286,3350.55682 C153.15476,3350.26136 153,3349.92046 153,3349.53409 L153,3340.46591 C153,3340.07954 153.15476,3339.73864 153.464286,3339.44318 C153.773811,3339.14773 154.13095,3339 154.535714,3339 L167.464286,3339 Z M167.285714,3342.10227 L167.285714,3340.63636 L161,3344.625 L154.714286,3340.63636 L154.714286,3342.10227 L161,3346.09091 L167.285714,3342.10227 Z" id=""></path>
        </g>
    </g>
</svg>