<svg xmlns="http://www.w3.org/2000/svg" width="22" height="22" viewBox="0 0 22 22">
  <path id="point_svg" d="M11,22A10.965,10.965,0,0,1,0,11,10.965,10.965,0,0,1,11,0a11.026,11.026,0,0,1,9.528,5.478A10.856,10.856,0,0,1,22,11,10.965,10.965,0,0,1,11,22ZM5.942,10.025a.751.751,0,0,0-.377.1.765.765,0,0,0-.365.463.7.7,0,0,0,.085.58l2.342,4.1a.763.763,0,0,0,1.053.279.93.93,0,0,0,.172-.129l.022-.022,7.713-7.756a.7.7,0,0,0,.236-.537.77.77,0,0,0-.773-.773.768.768,0,0,0-.559.237L8.465,13.622l-1.848-3.2a.723.723,0,0,0-.462-.365A.8.8,0,0,0,5.942,10.025Z" fill="#2f7fe3"/>
</svg>
