<?xml version="1.0" encoding="UTF-8"?>
<svg width="22px" height="22px" viewBox="0 0 22 22" version="1.1" xmlns="http://www.w3.org/2000/svg" xmlns:xlink="http://www.w3.org/1999/xlink">
    <!-- Generator: Sketch 57.1 (83088) - https://sketch.com -->
    <title></title>
    <desc>Created with Sketch.</desc>
    <g id="Page-1" stroke="none" stroke-width="1" fill="none" fill-rule="evenodd">
        <g id="B2B-Sales-Copy-4" transform="translate(-320.000000, -275.000000)" fill="#757575" fill-rule="nonzero">
            <g id="Group-7" transform="translate(300.000000, 257.000000)">
                <path d="M41.265625,38.046875 C41.4218758,38.2187509 41.5,38.4218738 41.5,38.65625 C41.5,38.8906262 41.4218758,39.0937491 41.265625,39.265625 C41.0937491,39.4218758 40.8906262,39.5 40.65625,39.5 C40.4218738,39.5 40.2265633,39.4218758 40.0703125,39.265625 L35.2421875,34.4375 C33.5703041,35.8125069 31.6562608,36.5 29.5,36.5 C27.0156126,36.5 24.89454,35.6211025 23.1367188,33.8632812 C21.3788975,32.10546 20.5,29.9843874 20.5,27.5 C20.5,25.0156126 21.3788975,22.89454 23.1367188,21.1367188 C24.89454,19.3788975 27.0156126,18.5 29.5,18.5 C31.9843874,18.5 34.10546,19.3788975 35.8632812,21.1367188 C37.6211025,22.89454 38.5,25.0156126 38.5,27.5 C38.5,29.6562608 37.8125069,31.5703041 36.4375,33.2421875 L41.265625,38.046875 Z M32.3359375,34.25 C33.2109419,33.8749981 33.9882779,33.3476596 34.6679688,32.6679688 C35.3476596,31.9882779 35.8749981,31.2109419 36.25,30.3359375 C36.6250019,29.445308 36.8125,28.500005 36.8125,27.5 C36.8125,26.499995 36.6250019,25.554692 36.25,24.6640625 C35.8749981,23.7890581 35.3476596,23.0117221 34.6679688,22.3320312 C33.9882779,21.6523404 33.2109419,21.1250019 32.3359375,20.75 C31.445308,20.3749981 30.500005,20.1875 29.5,20.1875 C28.499995,20.1875 27.554692,20.3749981 26.6640625,20.75 C25.7890581,21.1250019 25.0117221,21.6523404 24.3320312,22.3320312 C23.6523404,23.0117221 23.1328143,23.7890581 22.7734375,24.6640625 C22.3828105,25.554692 22.1875,26.499995 22.1875,27.5 C22.1875,28.500005 22.3828105,29.445308 22.7734375,30.3359375 C23.1328143,31.2109419 23.6523404,31.9882779 24.3320312,32.6679688 C25.0117221,33.3476596 25.7890581,33.8749981 26.6640625,34.25 C27.554692,34.6250019 28.499995,34.8125 29.5,34.8125 C30.500005,34.8125 31.445308,34.6250019 32.3359375,34.25 Z" id=""></path>
            </g>
        </g>
    </g>
</svg>