<svg id="search" xmlns="http://www.w3.org/2000/svg" width="46" height="46" viewBox="0 0 46 46">
  <path id="Path" d="M10,15.034,8.429,20.879,2.689,21A22.465,22.465,0,0,1,2.523,0h0L7.635.934,9.873,6A13.381,13.381,0,0,0,10,15.034Z" transform="translate(0 13)" fill="#fbbb00"/>
  <path id="Path-2" data-name="Path" d="M21.607,0A23.043,23.043,0,0,1,22,4.252,23.06,23.06,0,0,1,21.508,9a22.8,22.8,0,0,1-7.92,13h0l-6.418-.331L6.26,15.93A13.525,13.525,0,0,0,12.028,9H0V0H21.607Z" transform="translate(24 19)" fill="#518ef8"/>
  <path id="Path-3" data-name="Path" d="M35,12.991h0A23.435,23.435,0,0,1,20.459,18,23.3,23.3,0,0,1,0,6.034L7.527,0A13.8,13.8,0,0,0,20.459,8.776a13.956,13.956,0,0,0,6.974-1.85Z" transform="translate(3 28)" fill="#28b446"/>
  <path id="Path-4" data-name="Path" d="M35,5.422l-7.428,6.246A13.291,13.291,0,0,0,20.365,9.55,13.671,13.671,0,0,0,7.471,19L0,12.719H0A22.861,22.861,0,0,1,20.365,0,22.471,22.471,0,0,1,35,5.422Z" transform="translate(3)" fill="#f14336"/>
</svg>
