<svg xmlns="http://www.w3.org/2000/svg" width="79.5" height="79.5" viewBox="0 0 79.5 79.5">
  <g id="Flat" transform="translate(-3 -3)">
    <path id="Path_35" data-name="Path 35" d="M7.741,19H76.276a2.741,2.741,0,0,1,2.741,2.741V71.086H5V21.741A2.741,2.741,0,0,1,7.741,19Z" transform="translate(0.741 5.931)" fill="#2699aa"/>
    <path id="Path_36" data-name="Path 36" d="M3,57H82.5v2.741a2.741,2.741,0,0,1-2.741,2.741H5.741A2.741,2.741,0,0,1,3,59.741Z" transform="translate(0 20.017)" fill="#c8e0e3"/>
    <path id="Path_37" data-name="Path 37" d="M11.741,69.31H69.31a2.741,2.741,0,0,0,2.741-2.741V9H9V66.569A2.741,2.741,0,0,0,11.741,69.31Z" transform="translate(2.224 2.224)" fill="#e6e6e6"/>
    <path id="Path_38" data-name="Path 38" d="M9,13.966H72.052V5.741A2.741,2.741,0,0,0,69.31,3H11.741A2.741,2.741,0,0,0,9,5.741Z" transform="translate(2.224 0)" fill="#b3b3b3"/>
    <path id="Path_39" data-name="Path 39" d="M13.373,8.74A1.371,1.371,0,0,1,12.4,6.4a1.415,1.415,0,0,1,.452-.288,1.371,1.371,0,0,1,1.042,0,1.234,1.234,0,0,1,.74.74,1.293,1.293,0,0,1,0,1.042,1.415,1.415,0,0,1-.288.452,1.442,1.442,0,0,1-.973.4Z" transform="translate(3.334 1.114)" fill="#ff6536"/>
    <path id="Path_40" data-name="Path 40" d="M17.371,8.737a1.442,1.442,0,0,1-.973-.4,1.416,1.416,0,0,1-.4-.973,1.371,1.371,0,0,1,.11-.521,1.279,1.279,0,0,1,.288-.452,1.435,1.435,0,0,1,1.946,0,1.279,1.279,0,0,1,.288.452,1.371,1.371,0,0,1,.11.521,1.416,1.416,0,0,1-.4.973,1.442,1.442,0,0,1-.973.4Z" transform="translate(4.819 1.117)" fill="#fdb62f"/>
    <path id="Path_41" data-name="Path 41" d="M21.373,8.737A1.371,1.371,0,0,1,20.4,6.393a1.435,1.435,0,0,1,1.946,0,1.583,1.583,0,0,1,.288.452,1.293,1.293,0,0,1,0,1.042,1.583,1.583,0,0,1-.288.452A1.442,1.442,0,0,1,21.373,8.737Z" transform="translate(6.3 1.117)" fill="#02998a"/>
    <path id="Path_43" data-name="Path 43" d="M45.336,17.664a9.55,9.55,0,0,0-2.219.274L41.542,15.21l-4.748,2.741,1.575,2.728a9.558,9.558,0,0,0-2.225,3.838H33V30h3.144a9.558,9.558,0,0,0,2.225,3.838l-1.575,2.729,4.748,2.741,1.575-2.728a9.3,9.3,0,0,0,4.438,0l1.575,2.728,4.748-2.741L52.3,33.838A9.558,9.558,0,0,0,54.528,30h3.144V24.517H54.528A9.558,9.558,0,0,0,52.3,20.679l1.575-2.729L49.13,15.209l-1.575,2.729a9.549,9.549,0,0,0-2.219-.274Zm4.112,9.595a4.112,4.112,0,1,1-4.112-4.112A4.112,4.112,0,0,1,49.448,27.259Z" transform="translate(12.195 27.087)" fill="gray"/>
  </g>
</svg>
