<?xml version="1.0" encoding="UTF-8"?>
<svg width="42px" height="34px" viewBox="0 0 42 34" version="1.1" xmlns="http://www.w3.org/2000/svg" xmlns:xlink="http://www.w3.org/1999/xlink">
    <!-- Generator: Sketch 57.1 (83088) - https://sketch.com -->
    <title></title>
    <desc>Created with Sketch.</desc>
    <g id="Page-1" stroke="none" stroke-width="1" fill="none" fill-rule="evenodd">
        <g id="B2B-Sales-Copy-4" transform="translate(-1246.000000, -3259.000000)" fill="#1DA1F2" fill-rule="nonzero">
            <path d="M1288,3263.0375 C1286.82741,3264.7375 1285.36168,3266.25156 1283.68274,3267.47344 C1283.70939,3267.84531 1283.70939,3268.21719 1283.70939,3268.58906 C1283.70939,3279.93125 1275.04822,3293 1259.21827,3293 C1254.34137,3293 1249.81091,3291.59219 1246,3289.14844 C1246.69289,3289.22813 1247.35914,3289.25469 1248.07868,3289.25469 C1252.10279,3289.25469 1255.80711,3287.9 1258.76523,3285.58906 C1254.98096,3285.50938 1251.80964,3283.03906 1250.71701,3279.63906 C1251.25,3279.71875 1251.78299,3279.77187 1252.34264,3279.77187 C1253.11548,3279.77187 1253.88832,3279.66563 1254.60787,3279.47969 C1250.66371,3278.68281 1247.70558,3275.22969 1247.70558,3271.05937 C1247.70558,3271.03281 1247.70558,3270.97969 1247.70558,3270.95312 C1248.85152,3271.59062 1250.18401,3271.98906 1251.59645,3272.04219 C1249.27792,3270.50156 1247.75888,3267.87187 1247.75888,3264.89687 C1247.75888,3263.30312 1248.18528,3261.84219 1248.93147,3260.56719 C1253.16878,3265.77344 1259.53807,3269.17344 1266.6802,3269.54531 C1266.54695,3268.90781 1266.46701,3268.24375 1266.46701,3267.57969 C1266.46701,3262.85156 1270.30457,3259 1275.07487,3259 C1277.5533,3259 1279.79188,3260.03594 1281.36421,3261.70937 C1283.30964,3261.3375 1285.17513,3260.62031 1286.82741,3259.6375 C1286.18782,3261.62969 1284.82868,3263.30312 1283.04315,3264.36562 C1284.77538,3264.17969 1286.45431,3263.70156 1288,3263.0375 Z" id=""></path>
        </g>
    </g>
</svg>