<svg id="whatsapp" xmlns="http://www.w3.org/2000/svg" width="46" height="46" viewBox="0 0 46 46">
  <path id="Path" d="M23.006,0h-.012A22.986,22.986,0,0,0,4.379,36.481L1.512,45.025,10.353,42.2A23,23,0,1,0,23.006,0Z" fill="#4caf50"/>
  <path id="Path-2" data-name="Path" d="M26.517,21.649c-.55,1.545-2.733,2.826-4.474,3.2-1.191.252-2.747.454-7.985-1.706-6.7-2.761-11.014-9.532-11.351-9.971S0,9.586,0,6.332A7.223,7.223,0,0,1,2.331.813,3.323,3.323,0,0,1,4.662,0c.282,0,.536.014.764.026.67.028,1.006.068,1.448,1.12.55,1.318,1.889,4.572,2.049,4.906a1.343,1.343,0,0,1,.1,1.227,3.919,3.919,0,0,1-.738,1.04C7.945,8.7,7.626,9,7.29,9.413c-.308.36-.655.745-.268,1.412a20.143,20.143,0,0,0,3.7,4.572,16.781,16.781,0,0,0,5.346,3.279,1.447,1.447,0,0,0,1.607-.252,27.449,27.449,0,0,0,1.781-2.347,1.276,1.276,0,0,1,1.636-.493c.616.213,3.873,1.814,4.543,2.146s1.111.493,1.274.774A5.619,5.619,0,0,1,26.517,21.649Z" transform="translate(10 11)" fill="#fafafa"/>
</svg>
